<svg width="539" height="205" viewBox="0 0 539 205" fill="none" xmlns="http://www.w3.org/2000/svg">
<path d="M43.5713 205C19.5227 205 0 184.377 0 159.052L0 117.948C0 92.5874 19.5565 72 43.5713 72H495.429C519.477 72 539 92.623 539 117.948L539 159.052C539 184.413 519.444 205 495.429 205H43.5713Z" fill="#FFCA7B"/>
<path d="M43.5713 189C19.5227 189 0 166.399 0 138.644V50.3556C0 22.5624 19.5565 0 43.5713 0H495.429C519.477 0 539 22.6014 539 50.3556V138.644C539 166.438 519.444 189 495.429 189H43.5713Z" fill="#FDE8B3"/>
<path d="M496.765 177L42.2387 176.023C25.5228 176.023 12.0005 159.475 12.0005 139.111L12 48.9121C12 28.5068 25.5563 12 42.2382 12H496.761C513.477 12 526.999 28.5482 526.999 48.9121L527 139.111C527 159.516 513.481 177 496.765 177Z" fill="#FFF6D4"/>
<path d="M496.762 177H42.2382C25.5223 177 12 161.847 12 143.2L12 45.8005C12 27.1153 25.5563 12 42.2383 12H496.762C513.478 12 527 27.1533 527 45.8005L527 143.2C527 161.885 513.478 177 496.762 177Z" stroke="#FFB489" stroke-width="3" stroke-miterlimit="2.61313" stroke-linecap="round" stroke-dasharray="10 10"/>
</svg>
