<svg width="1849" height="1155" viewBox="0 0 1849 1155" fill="none" xmlns="http://www.w3.org/2000/svg">
<g filter="url(#filter0_d_2_1345)">
<path d="M37 30H1821V935C1821 965.928 1795.93 991 1765 991H93C62.072 991 37 965.928 37 935V30Z" fill="url(#paint0_linear_2_1345)"/>
<path opacity="0.4" d="M1820.66 34.5214H30.2407V991.442H1820.66V34.5214Z" fill="url(#paint1_linear_2_1345)"/>
<path opacity="0.4" fill-rule="evenodd" clip-rule="evenodd" d="M694.307 34.5214C694.307 34.5214 792.512 865.147 1820.68 991.442H30.2407V34.5214H694.307V34.5214Z" fill="url(#paint2_linear_2_1345)"/>
<path opacity="0.4" fill-rule="evenodd" clip-rule="evenodd" d="M1367.11 38.483C1367.11 38.483 1350.66 856.803 914.063 991.423H1820.68V34.5023L1367.11 38.483Z" fill="url(#paint3_linear_2_1345)"/>
<path fill-rule="evenodd" clip-rule="evenodd" d="M30.2407 34.5214C30.2407 34.5214 76.1471 695.505 429.522 991.48C782.897 1287.46 429.522 991.48 429.522 991.48L30.2407 991.442V34.5214Z" fill="url(#paint4_linear_2_1345)"/>
<path fill-rule="evenodd" clip-rule="evenodd" d="M1367.11 38.4832C1367.11 38.4832 1371.48 834.583 898.683 999.997H883.966C883.966 999.997 1319.65 931.443 1367.11 38.4832Z" fill="url(#paint5_linear_2_1345)"/>
<path fill-rule="evenodd" clip-rule="evenodd" d="M694.307 34.5214C694.307 34.5214 769.505 523.68 1175.5 764.307L1179.74 755.848C1179.74 755.848 827.586 598.339 694.307 34.5214Z" fill="url(#paint6_linear_2_1345)"/>
<path fill-rule="evenodd" clip-rule="evenodd" d="M30.563 38.4832C30.563 38.4832 113.227 560.081 329.652 1009.7L317.531 1013.53C317.531 1013.53 88.3219 490.973 30.563 38.4832Z" fill="url(#paint7_linear_2_1345)"/>
<g opacity="0.2">
<path d="M991.517 993.758L990.979 992.437C991.875 992.016 1080.91 949.089 1175.18 810.775C1262.19 683.122 1371.55 445.768 1398.46 40.0716L1399.8 40.1673C1387.92 219.475 1359.07 381.195 1314.06 520.79C1278.04 632.501 1231.67 730.375 1176.2 811.732C1081.72 950.294 992.394 993.337 991.517 993.758Z" fill="#FFFFBF"/>
<path d="M1047.45 996.207L1046.72 995.002C1047.68 994.332 1143.77 925.912 1237.4 774.642C1323.8 635.027 1425.69 394.266 1420.48 40.1291L1421.83 40.1099C1424.14 196.662 1405.89 344.334 1367.61 479.03C1336.98 586.798 1293.54 686.548 1238.47 775.503C1144.69 927.003 1048.42 995.537 1047.45 996.207Z" fill="#FFFFBF"/>
<path d="M1172.87 993.528L1171.79 992.666C1172.47 991.69 1241.53 892.477 1314.17 725.303C1381.22 571.028 1465.14 325.655 1484.15 32.8372L1485.49 32.9329C1477.1 162.328 1455.43 293.349 1421.11 422.361C1393.66 525.555 1358.09 627.697 1315.39 725.954C1242.66 893.242 1173.57 992.532 1172.87 993.528Z" fill="#FFFFBF"/>
<path d="M1265.7 991.365L1264.54 990.657C1403.22 725.533 1466.32 480.121 1494.8 320.947C1525.69 148.472 1523.74 37.2583 1523.72 36.1674L1525.06 36.1292C1525.08 37.2392 1527.03 148.548 1496.13 321.177C1477.97 422.553 1452.23 524.924 1419.57 625.439C1378.75 751.083 1326.97 874.2 1265.7 991.365Z" fill="#FFFFBF"/>
<path d="M1317.91 991.193L1316.76 990.427C1452.62 756.901 1506.82 509.9 1528.36 343.798C1551.7 163.821 1542.79 37.4497 1542.7 36.1865L1544.04 36.0717C1544.13 37.3349 1553.05 163.821 1529.7 343.951C1515.98 449.748 1493.98 553.057 1464.31 651.046C1427.22 773.532 1377.96 887.98 1317.91 991.193Z" fill="#FFFFBF"/>
<path d="M1367.63 995.92L1366.41 995.289C1477.87 748.231 1533.76 500.599 1561.05 336.353C1590.61 158.385 1593.85 37.3157 1593.89 36.1292L1595.23 36.1674C1595.19 37.3731 1591.95 158.558 1562.39 336.602C1535.09 500.944 1479.16 748.729 1367.63 995.92Z" fill="#FFFFBF"/>
<path d="M1409.26 993.452L1408.13 992.667C1536.93 781.283 1591.74 532.484 1615.01 360.965C1640.24 175.131 1634.96 37.5262 1634.89 36.1674L1636.23 36.11C1636.28 37.488 1641.58 175.208 1616.34 361.176C1601.51 470.399 1579.19 574.665 1550.02 671.046C1513.55 791.541 1466.19 900.018 1409.26 993.452Z" fill="#FFFFBF"/>
<path d="M1455.58 999.901L1454.47 999.116C1584.29 790.125 1650.21 540.043 1682.64 367.07C1717.78 179.629 1722.28 39.8611 1722.31 38.464L1723.66 38.5023C1723.62 39.8994 1719.11 179.782 1683.94 367.338C1663.28 477.48 1636.26 582.282 1603.59 678.816C1562.77 799.484 1512.96 907.52 1455.58 999.901Z" fill="#FFFFBF"/>
<path d="M1543.95 995.959L1542.79 995.25C1648.98 795.599 1713.02 546.072 1748.04 371.912C1785.98 183.189 1798.98 39.842 1799.1 38.4257L1800.45 38.5597C1800.32 39.9951 1787.32 183.399 1749.35 372.2C1714.31 546.455 1650.23 796.134 1543.95 995.959Z" fill="#FFFFBF"/>
<path d="M1658.79 995.882L1657.55 995.346C1718.57 835.962 1759.48 583.641 1783.04 400.046C1808.57 201.083 1819.82 37.7368 1819.93 36.11L1821.27 36.2057C1821.16 37.8324 1809.92 201.217 1784.37 400.218C1760.79 583.89 1719.86 836.344 1658.79 995.882Z" fill="#FFFFBF"/>
<path d="M1699.14 995.882L1697.91 995.327C1749.28 865.167 1779.71 659.218 1796.2 509.364C1814.07 346.975 1819.85 213.657 1819.93 212.336L1821.27 212.394C1821.21 213.714 1815.41 347.071 1797.55 509.518C1781.04 659.467 1750.56 865.568 1699.14 995.882Z" fill="#FFFFBF"/>
<path d="M1779.52 988.743L1778.25 988.322C1823.22 835.445 1819.96 463.298 1819.91 459.547L1821.25 459.528C1821.3 463.279 1824.58 835.655 1779.52 988.743Z" fill="#FFFFBF"/>
<path d="M1166.05 785.321C1084.85 752.422 1006.9 692.691 934.348 607.793C876.339 539.89 821.641 455.815 771.778 357.922C686.877 191.246 644.891 40.2246 644.479 38.7127L645.769 38.3108C646.18 39.8227 688.13 190.71 772.96 357.252C851.219 510.896 983.03 709.667 1166.51 783.982L1166.05 785.321Z" fill="#FFFFBF"/>
<path d="M1149.27 802.967C1072.3 774.164 995.366 716.04 920.598 630.224C860.816 561.593 802.27 475.203 746.588 373.463C651.803 200.222 597.481 40.3205 596.944 38.732L598.216 38.2535C598.753 39.842 653.038 199.629 747.769 372.755C835.178 532.484 975.851 736.538 1149.72 801.627L1149.27 802.967Z" fill="#FFFFBF"/>
<path d="M1110.56 853.512C1027.92 805.474 945.789 732.729 866.438 637.324C802.985 561.019 741.144 470.112 682.669 367.147C583.104 191.82 527.064 40.263 526.509 38.7511L527.762 38.2344C528.317 39.7463 584.339 191.208 683.851 366.42C775.664 528.101 924.358 743.619 1111.22 852.248L1110.56 853.512Z" fill="#FFFFBF"/>
<path d="M1024.34 923.443C941.51 877.129 859.778 801.647 781.393 699.122C718.711 617.133 658.015 517.747 601.009 403.721C503.932 209.619 450.506 38.0813 449.969 36.3589L451.24 35.8995C451.759 37.6029 505.167 209.045 602.19 403.051C691.711 582.072 837.72 817.436 1024.94 922.161L1024.34 923.443Z" fill="#FFFFBF"/>
<path d="M973.021 957.835C898.021 907.769 821.91 828.306 746.838 721.61C686.787 636.291 627.256 533.46 569.873 415.969C472.205 215.954 413.909 40.4736 413.336 38.732L414.608 38.2535C415.181 39.9951 473.441 215.399 571.09 415.319C661.184 599.794 804.167 843.445 973.756 956.61L973.021 957.835Z" fill="#FFFFBF"/>
<path d="M885.488 986.944C742.792 812.306 610.981 563.794 525.542 386.075C432.96 193.523 373.356 40.2822 372.766 38.7702L374.001 38.2152C374.592 39.7463 434.177 192.93 526.724 385.424C612.127 563.067 743.884 811.464 886.491 985.987L885.488 986.944Z" fill="#FFFFBF"/>
<path d="M809.27 991.997C742.147 926.601 674.881 835.483 609.352 721.188C556.946 629.764 505.508 523.393 456.486 405.022C373.035 203.475 324.89 34.7703 324.407 33.0861L325.696 32.665C326.179 34.3492 374.306 202.978 457.739 404.429C534.727 590.339 658.374 842.985 810.183 990.906L809.27 991.997Z" fill="#FFFFBF"/>
<path d="M775.717 991.327C702.185 914.869 630.747 817.187 563.392 701.036C509.5 608.119 458.097 503.24 410.579 389.29C329.67 195.303 287.595 40.2248 287.184 38.6937L288.473 38.2918C288.884 39.842 330.941 194.825 411.797 388.735C486.421 567.679 610.283 817.302 776.648 990.294L775.717 991.327Z" fill="#FFFFBF"/>
<path d="M708.756 994.466C572.881 838.315 444.973 587.2 361.611 404.046C271.285 205.619 212.326 42.0046 211.735 40.3778L212.989 39.8611C213.579 41.4878 272.52 205.064 362.811 403.433C446.137 586.492 573.973 837.473 709.741 993.49L708.756 994.466Z" fill="#FFFFBF"/>
<path d="M650.03 991.901C511.219 799.637 378.298 549.651 291.23 373.788C196.911 183.246 134.604 36.2631 133.978 34.8086L135.195 34.2153C135.822 35.6699 198.11 182.615 292.412 373.118C379.444 548.924 512.329 798.852 651.086 991.021L650.03 991.901Z" fill="#FFFFBF"/>
<path d="M579.666 991.959C443.344 832.268 314.684 579.622 230.767 395.797C139.85 196.643 80.3902 33.1435 79.7993 31.5167L81.0526 31C81.6434 32.6268 141.085 196.088 231.985 395.185C315.866 578.913 444.454 831.426 580.651 990.983L579.666 991.959Z" fill="#FFFFBF"/>
<path d="M447.874 991.94C343.349 868.191 235.28 615.583 163.018 425.462C84.7232 219.513 30.4556 40.4927 29.9185 38.7128L31.1897 38.2726C31.7268 40.0525 85.9944 219.035 164.254 424.945C236.479 614.951 344.477 867.406 448.859 990.983L447.874 991.94Z" fill="#FFFFBF"/>
<path d="M369.812 996.035C279.682 865.434 193.222 623.582 136.556 443.681C75.1801 248.814 34.5734 82.6545 34.1616 81.0086L35.4686 80.645C35.8625 82.2909 76.4692 248.412 137.827 443.241C194.458 623.027 280.864 864.726 370.886 995.174L369.812 996.035Z" fill="#FFFFBF"/>
<path d="M235.781 995.901C134.175 754.662 30.1512 257.465 29.1128 252.47L30.4198 252.164C31.4582 257.159 135.446 754.202 237.016 995.308L235.781 995.901Z" fill="#FFFFBF"/>
<path d="M211.789 995.959C104.489 793.398 27.7699 429.921 27 426.266L28.307 425.959C29.0769 429.596 105.761 792.881 212.953 995.251L211.789 995.959Z" fill="#FFFFBF"/>
<path d="M159.562 998.198C89.2169 851.674 32.013 571.775 31.458 568.961L32.765 568.655C33.3379 571.469 90.4881 851.176 160.762 997.528L159.562 998.198Z" fill="#FFFFBF"/>
<path d="M99.9598 1010.04C59.2098 928.955 31.709 734.949 31.4404 732.997L32.7653 732.786C33.0339 734.738 60.4989 928.515 101.141 1009.37L99.9598 1010.04Z" fill="#FFFFBF"/>
<path d="M1361.94 83.6306C1213.69 30.7703 706.786 71.6308 701.684 72.0519L701.576 70.6165C706.679 70.1955 1213.87 29.3158 1362.37 82.2718L1361.94 83.6306Z" fill="#FFFFBF"/>
<path d="M727.519 154.347L727.34 152.931C731.136 152.414 1109.95 100.989 1359.36 152.931L1359.11 154.347C1109.92 102.424 731.315 153.83 727.519 154.347Z" fill="#FFFFBF"/>
<path d="M758.243 240.106L757.975 238.69C760.786 238.097 1042.94 179.112 1354.17 199.284L1354.09 200.719C1043.03 180.548 761.054 239.513 758.243 240.106Z" fill="#FFFFBF"/>
<path d="M789.629 313.119L789.396 311.703C792.888 311.033 1141.55 246.135 1344.84 281.407L1344.62 282.823C1141.57 247.608 793.121 312.469 789.629 313.119Z" fill="#FFFFBF"/>
<path d="M807.283 347.243L806.996 345.846C809.807 345.214 1089.99 283.034 1335.76 319.435L1335.58 320.851C1090.04 284.488 810.076 346.612 807.283 347.243Z" fill="#FFFFBF"/>
<path d="M830.003 400.18L829.788 398.764C832.689 398.266 1121.98 348.736 1322.85 387.089L1322.62 388.505C1121.97 350.171 832.903 399.663 830.003 400.18Z" fill="#FFFFBF"/>
<path d="M1320.7 415.318C1165.04 392.027 844.452 414.266 841.229 414.496L841.14 413.06C844.362 412.83 1165.1 390.592 1320.9 413.902L1320.7 415.318Z" fill="#FFFFBF"/>
<path d="M893.957 464.963L893.796 463.547C896.284 463.203 1145.21 430.208 1306.85 451.126L1306.68 452.543C1145.21 431.643 896.445 464.638 893.957 464.963Z" fill="#FFFFBF"/>
<path d="M930.32 518.57L930.213 517.135C932.719 516.924 1182.45 496.35 1293.15 503.853L1293.06 505.288C1182.47 497.805 932.827 518.36 930.32 518.57Z" fill="#FFFFBF"/>
<path d="M1008.85 618.319L1008.63 616.903C1009.94 616.674 1140.46 593.554 1257.9 601.057L1257.82 602.492C1140.55 595.009 1010.15 618.09 1008.85 618.319Z" fill="#FFFFBF"/>
<path d="M1081.11 695.409L1080.84 694.012C1081.81 693.801 1177.94 672.367 1227.64 677.936L1227.49 679.371C1177.99 673.802 1082.08 695.199 1081.11 695.409Z" fill="#FFFFBF"/>
</g>
<g style="mix-blend-mode:multiply" opacity="0.3">
<path fill-rule="evenodd" clip-rule="evenodd" d="M1356.94 40.1099C1356.94 40.1099 1359.25 399.453 1142.41 733.552L1168.75 750.336C1168.75 750.336 1070.65 936.017 868.103 993.088L914.063 991.423C914.045 991.442 1332.04 879.042 1356.94 40.1099Z" fill="url(#paint8_linear_2_1345)"/>
</g>
<g style="mix-blend-mode:multiply" opacity="0.3">
<path fill-rule="evenodd" clip-rule="evenodd" d="M34.8242 73.315C34.8242 73.315 156.483 686.797 341.792 1027.36L407.93 1035.94C407.912 1035.94 167.978 692.002 34.8242 73.315Z" fill="url(#paint9_linear_2_1345)"/>
</g>
</g>
<defs>
<filter id="filter0_d_2_1345" x="0" y="0" width="1848.32" height="1154.02" filterUnits="userSpaceOnUse" color-interpolation-filters="sRGB">
<feFlood flood-opacity="0" result="BackgroundImageFix"/>
<feColorMatrix in="SourceAlpha" type="matrix" values="0 0 0 0 0 0 0 0 0 0 0 0 0 0 0 0 0 0 127 0" result="hardAlpha"/>
<feOffset dy="4"/>
<feGaussianBlur stdDeviation="13.5"/>
<feColorMatrix type="matrix" values="0 0 0 0 0.704167 0 0 0 0 0.41581 0 0 0 0 0.149635 0 0 0 0.25 0"/>
<feBlend mode="normal" in2="BackgroundImageFix" result="effect1_dropShadow_2_1345"/>
<feBlend mode="normal" in="SourceGraphic" in2="effect1_dropShadow_2_1345" result="shape"/>
</filter>
<linearGradient id="paint0_linear_2_1345" x1="929" y1="30" x2="929" y2="991" gradientUnits="userSpaceOnUse">
<stop stop-color="#FFB648"/>
<stop offset="1" stop-color="#FFB648"/>
</linearGradient>
<linearGradient id="paint1_linear_2_1345" x1="925.457" y1="991.433" x2="925.457" y2="34.5126" gradientUnits="userSpaceOnUse">
<stop offset="0.0171" stop-color="#FFC42C"/>
<stop offset="0.9665" stop-color="#FFD600"/>
</linearGradient>
<linearGradient id="paint2_linear_2_1345" x1="925.458" y1="991.433" x2="925.458" y2="34.5126" gradientUnits="userSpaceOnUse">
<stop offset="0.0171" stop-color="#FF8B2C"/>
<stop offset="0.0422" stop-color="#FF8D2A"/>
<stop offset="0.3782" stop-color="#FFA413"/>
<stop offset="0.6939" stop-color="#FFB105"/>
<stop offset="0.9665" stop-color="#FFB600"/>
</linearGradient>
<linearGradient id="paint3_linear_2_1345" x1="1367.36" y1="991.433" x2="1367.36" y2="34.5126" gradientUnits="userSpaceOnUse">
<stop offset="0.0171" stop-color="#FFA12C"/>
<stop offset="0.9665" stop-color="#FFC500"/>
</linearGradient>
<linearGradient id="paint4_linear_2_1345" x1="308.409" y1="1123.01" x2="308.409" y2="34.5126" gradientUnits="userSpaceOnUse">
<stop offset="0.0171" stop-color="#FFA12C"/>
<stop offset="0.9665" stop-color="#FFB600"/>
</linearGradient>
<linearGradient id="paint5_linear_2_1345" x1="1125.54" y1="999.996" x2="1125.54" y2="38.4912" gradientUnits="userSpaceOnUse">
<stop offset="0.0171" stop-color="#FFAE2C"/>
<stop offset="0.9665" stop-color="#FFCD00"/>
</linearGradient>
<linearGradient id="paint6_linear_2_1345" x1="937.018" y1="764.301" x2="937.018" y2="34.5126" gradientUnits="userSpaceOnUse">
<stop offset="0.0171" stop-color="#FFAE2C"/>
<stop offset="0.9665" stop-color="#FFCD00"/>
</linearGradient>
<linearGradient id="paint7_linear_2_1345" x1="180.104" y1="1013.53" x2="180.104" y2="38.4912" gradientUnits="userSpaceOnUse">
<stop offset="0.0171" stop-color="#FFAE2C"/>
<stop offset="0.9665" stop-color="#FFCD00"/>
</linearGradient>
<linearGradient id="paint8_linear_2_1345" x1="868.099" y1="516.607" x2="1356.94" y2="516.607" gradientUnits="userSpaceOnUse">
<stop offset="0.00558659" stop-color="#DB5098"/>
<stop offset="1" stop-color="#FFFED1"/>
</linearGradient>
<linearGradient id="paint9_linear_2_1345" x1="34.8172" y1="554.627" x2="407.916" y2="554.627" gradientUnits="userSpaceOnUse">
<stop offset="0.00558659" stop-color="#DB5098"/>
<stop offset="1" stop-color="#FFFED1"/>
</linearGradient>
</defs>
</svg>
