<svg width="57" height="61" viewBox="0 0 57 61" fill="none" xmlns="http://www.w3.org/2000/svg">
<g clip-path="url(#clip0_194_314)" filter="url(#filter0_d_194_314)">
<path d="M44.603 56.2154H12.3249C6.46644 56.2154 1.71155 51.4406 1.71155 45.5576V19.9237C1.71155 14.0407 6.46644 9.26593 12.3249 9.26593H44.603C50.4614 9.26593 55.2163 14.0407 55.2163 19.9237V45.5576C55.2163 51.4406 50.4614 56.2154 44.603 56.2154Z" fill="#F9B842"/>
<path d="M44.603 56.2154H12.3249C6.46644 56.2154 1.71155 51.4406 1.71155 45.5576V19.9237C1.71155 14.0407 6.46644 9.26593 12.3249 9.26593H44.603C50.4614 9.26593 55.2163 14.0407 55.2163 19.9237V45.5576C55.2163 51.4406 50.4614 56.2154 44.603 56.2154Z" fill="#FFD27B"/>
<path d="M45.9824 4.94742C51.0781 4.94742 55.2163 9.49407 55.2163 15.1163V46.0465C55.2163 51.6524 50.0882 56.2154 44.9763 56.2154H33.584V4.94742H45.9824Z" fill="url(#paint0_linear_194_314)"/>
<path d="M10.9454 4.94742C5.84975 4.94742 1.71153 9.49407 1.71153 15.1163V46.0465C1.71153 51.6524 6.83968 56.2154 11.9516 56.2154H23.3439V4.94742H10.9454Z" fill="url(#paint1_linear_194_314)"/>
<path d="M44.603 46.8613H12.3249C6.46644 46.8613 1.71155 42.0865 1.71155 36.2036V10.5859C1.71155 4.70299 6.46644 -0.0718079 12.3249 -0.0718079H44.603C50.4614 -0.0718079 55.2163 4.70299 55.2163 10.5859V36.2199C55.2163 42.0865 50.4614 46.8613 44.603 46.8613Z" fill="#FFDE32"/>
<path d="M27.3334 32.2432C27.2559 32.1676 26.9247 31.8823 26.6522 31.6165C24.9386 30.0581 22.1338 25.993 21.2776 23.8653C21.1401 23.5421 20.8489 22.7252 20.8302 22.2887C20.8302 21.8705 20.9264 21.4718 21.1214 21.0913C21.3938 20.617 21.8226 20.2366 22.3288 20.0281C22.68 19.8939 23.7312 19.6854 23.7499 19.6854C24.8998 19.4769 26.7684 19.3623 28.8333 19.3623C30.8006 19.3623 32.593 19.4769 33.7604 19.6476C33.7791 19.6672 35.0853 19.8756 35.5328 20.1037C36.3502 20.5219 36.8577 21.3389 36.8577 22.2131V22.2887C36.8377 22.8581 36.3301 24.0555 36.3114 24.0555C35.4539 26.0685 32.7867 30.0399 31.0143 31.636C31.0143 31.636 30.5589 32.0855 30.2744 32.281C29.8657 32.5858 29.3595 32.737 28.8533 32.737C28.2883 32.737 27.7621 32.5663 27.3334 32.2432Z" fill="white"/>
</g>
<defs>
<filter id="filter0_d_194_314" x="0" y="0" width="57" height="61" filterUnits="userSpaceOnUse" color-interpolation-filters="sRGB">
<feFlood flood-opacity="0" result="BackgroundImageFix"/>
<feColorMatrix in="SourceAlpha" type="matrix" values="0 0 0 0 0 0 0 0 0 0 0 0 0 0 0 0 0 0 127 0" result="hardAlpha"/>
<feOffset dy="3"/>
<feGaussianBlur stdDeviation="1"/>
<feColorMatrix type="matrix" values="0 0 0 0 0.870588 0 0 0 0 0.6 0 0 0 0 0.34902 0 0 0 1 0"/>
<feBlend mode="normal" in2="BackgroundImageFix" result="effect1_dropShadow_194_314"/>
<feBlend mode="normal" in="SourceGraphic" in2="effect1_dropShadow_194_314" result="shape"/>
</filter>
<linearGradient id="paint0_linear_194_314" x1="62.2829" y1="30.5824" x2="33.5874" y2="30.5824" gradientUnits="userSpaceOnUse">
<stop stop-color="#FFBE5C"/>
<stop offset="0.84375" stop-color="#FFA90B" stop-opacity="0"/>
</linearGradient>
<linearGradient id="paint1_linear_194_314" x1="-5.35509" y1="30.5824" x2="23.3405" y2="30.5824" gradientUnits="userSpaceOnUse">
<stop stop-color="#FFBE5C"/>
<stop offset="0.84375" stop-color="#FFA90B" stop-opacity="0"/>
</linearGradient>
<clipPath id="clip0_194_314">
<rect width="53" height="56" fill="white" transform="translate(2)"/>
</clipPath>
</defs>
</svg>
