<svg width="384" height="84" viewBox="0 0 384 84" fill="none" xmlns="http://www.w3.org/2000/svg">
<g clip-path="url(#clip0_194_338)" filter="url(#filter0_d_194_338)">
<path d="M364.287 71.9999H19.7127C13.2474 71.9999 8 66.3047 8 59.2877V28.7122C8 21.6952 13.2474 15.9999 19.7127 15.9999H364.287C370.753 15.9999 376 21.6952 376 28.7122V59.2877C375.982 66.3047 370.753 71.9999 364.287 71.9999Z" fill="#BD000B"/>
<path d="M365.858 11C371.455 11 376 16.4097 376 23.0992V59.9008C376 66.5709 370.368 72 364.753 72H273V11H365.858Z" fill="url(#paint0_linear_194_338)"/>
<path d="M18.1416 11C12.545 11 8 16.4097 8 23.0992V59.9008C8 66.5709 13.6323 72 19.2467 72H111V11H18.1416Z" fill="url(#paint1_linear_194_338)"/>
<path d="M364.305 64.8686H19.7132C13.2477 64.8686 8 58.676 8 51.0463V17.8222C8 10.1925 13.2477 4 19.7132 4H364.305C370.77 4 376.018 10.1925 376.018 17.8222V51.0675C376 58.676 370.77 64.8686 364.305 64.8686Z" fill="#FF000A"/>
<path d="M146.203 42.6328C146.167 40.4909 146.139 38.1849 146.121 35.7148H145.246C144.964 35.7148 144.731 35.5781 144.549 35.3047C144.367 35.0221 144.275 34.6348 144.275 34.1426C144.275 32.6478 144.836 31.9004 145.957 31.9004L146.066 31.873L146.012 25.3242C146.012 25.2513 146.34 25.1055 146.996 24.8867C147.671 24.6497 148.641 24.4173 149.908 24.1895C151.221 23.9525 152.428 23.834 153.531 23.834C154.671 23.834 155.641 23.9023 156.443 24.0391C157.236 24.1576 158.089 24.4355 159 24.873C159.884 25.2923 160.632 25.8574 161.242 26.5684C161.853 27.2611 162.359 28.2363 162.76 29.4941C163.161 30.752 163.361 32.2148 163.361 33.8828C163.361 35.5508 163.147 37.0273 162.719 38.3125C162.299 39.5794 161.762 40.582 161.105 41.3203C160.458 42.0495 159.688 42.6374 158.795 43.084C157.938 43.5215 157.095 43.8177 156.266 43.9727C155.509 44.1185 154.616 44.1914 153.586 44.1914C152.565 44.1914 151.435 44.0638 150.195 43.8086C148.992 43.5625 148.008 43.2982 147.242 43.0156L146.203 42.6328ZM154.639 33.7461C154.639 35.0312 154.215 35.6875 153.367 35.7148L152.164 35.7695L152.191 37.1367C152.902 37.4193 153.632 37.5605 154.379 37.5605C156.247 37.5514 157.182 36.2799 157.182 33.7461C157.182 31.2122 156.247 29.9453 154.379 29.9453C153.622 29.9453 153.057 30.0319 152.684 30.2051C152.301 30.3691 152.109 30.4603 152.109 30.4785L152.137 31.873H154.27C154.516 32.4473 154.639 33.0716 154.639 33.7461ZM174.312 42.3457C173.346 43.4486 172.079 44 170.512 44C168.944 44 167.549 43.5898 166.328 42.7695C165.116 41.9492 164.51 40.7962 164.51 39.3105C164.51 37.8249 165.043 36.7083 166.109 35.9609C167.185 35.2135 168.388 34.8398 169.719 34.8398C171.059 34.8398 172.335 35.0859 173.547 35.5781V35.373C173.547 34.3249 172.681 33.8053 170.949 33.8145L167.982 34.0059C167.153 34.0059 166.501 33.8236 166.027 33.459C165.553 33.0944 165.316 32.3789 165.316 31.3125C165.316 30.2461 165.421 29.5397 165.631 29.1934C167.189 28.6465 168.848 28.3639 170.607 28.3457C172.95 28.3457 174.891 28.9792 176.432 30.2461C177.981 31.5039 178.756 33.3086 178.756 35.6602L178.482 39.7754C178.473 40.0853 178.77 40.3724 179.371 40.6367C179.371 42.2682 179.093 43.2389 178.537 43.5488C177.99 43.8496 177.466 44 176.965 44C176.464 44 176.04 43.9089 175.693 43.7266C175.365 43.5443 175.105 43.3574 174.914 43.166C174.732 42.9564 174.531 42.6829 174.312 42.3457ZM171.223 40.5273C172.225 40.5273 172.964 40.2949 173.438 39.8301V38.791C173.319 38.6725 172.982 38.5221 172.426 38.3398C171.241 37.9388 170.393 37.9661 169.883 38.4219C169.436 38.7773 169.345 39.2148 169.609 39.7344C169.883 40.2904 170.421 40.5547 171.223 40.5273ZM167.545 24.0938C167.545 23.7109 167.727 23.3919 168.092 23.1367C168.465 22.8633 168.848 22.7266 169.24 22.7266L169.979 22.8086C170.042 22.9909 170.115 23.1732 170.197 23.3555C170.298 23.5833 170.516 23.875 170.854 24.2305C171.2 24.6042 171.56 24.791 171.934 24.791C172.307 24.791 172.663 24.6224 173 24.2852C173.346 23.9388 173.579 23.6152 173.697 23.3145L173.93 22.8359C174.103 22.763 174.358 22.7266 174.695 22.7266C175.051 22.7266 175.411 22.8496 175.775 23.0957C176.149 23.3327 176.336 23.6654 176.336 24.0938C176.336 25.1602 175.862 26.0443 174.914 26.7461C173.975 27.4388 172.982 27.7852 171.934 27.7852C170.885 27.7852 169.892 27.4388 168.953 26.7461C168.014 26.0534 167.545 25.1693 167.545 24.0938ZM170.58 49.9062C170.215 49.5417 170.033 49.0951 170.033 48.5664C170.033 48.0378 170.211 47.582 170.566 47.1992C170.931 46.8073 171.378 46.6113 171.906 46.6113C172.435 46.6113 172.891 46.8073 173.273 47.1992C173.665 47.582 173.861 48.0378 173.861 48.5664C173.861 49.0859 173.67 49.5326 173.287 49.9062C172.913 50.2708 172.458 50.4531 171.92 50.4531C171.391 50.4531 170.945 50.2708 170.58 49.9062ZM181.695 37.8066C181.695 36.6947 181.759 35.5098 181.887 34.252C180.583 33.9512 179.895 33.5866 179.822 33.1582C179.786 33.0033 179.768 32.3971 179.768 31.3398C179.768 30.3008 179.786 29.7812 179.822 29.7812L180.861 29.4941C181.545 29.2936 181.937 29.1934 182.037 29.1934L181.805 26.4453L181.75 25.5156C182.47 24.9779 183.65 24.709 185.291 24.709C186.95 24.709 187.962 25.0964 188.326 25.8711C188.7 26.6641 188.887 27.6484 188.887 28.8242L192.564 28.6602C192.865 29.8633 193.011 30.9935 193.002 32.0508C193.002 33.582 192.61 34.3841 191.826 34.457L188.914 34.6758C188.823 35.1862 188.777 35.7467 188.777 36.3574C188.777 37.7428 189.124 38.431 189.816 38.4219H189.926C190.938 38.3581 191.648 38.2031 192.059 37.957C192.132 37.957 192.35 38.0983 192.715 38.3809C193.079 38.6543 193.262 39.3516 193.262 40.4727C193.262 41.6029 192.833 42.487 191.977 43.125C191.138 43.763 189.607 44.082 187.383 44.082C183.591 44.082 181.695 41.9902 181.695 37.8066ZM216.189 32.3789C216.189 33.0443 216.057 33.7734 215.793 34.5664C215.501 35.6055 214.9 36.8997 213.988 38.4492C213.086 39.9805 212.252 41.252 211.486 42.2637L210.338 43.7812C209.709 43.9635 209.053 44.0547 208.369 44.0547C207.221 44.0547 206.2 43.7676 205.307 43.1934C204.413 42.6009 203.785 41.7487 203.42 40.6367C200.959 34.8945 199.596 31.9368 199.332 31.7637C199.332 30.998 199.77 30.3008 200.645 29.6719C201.51 29.0339 202.381 28.7148 203.256 28.7148C204.505 28.7148 205.516 29.4577 206.291 30.9434C207.057 32.3926 207.667 34.7396 208.123 37.9844H208.287C209.053 34.3568 209.559 31.4993 209.805 29.4121C210.324 28.8561 211.099 28.5781 212.129 28.5781C212.639 28.569 213.236 28.6875 213.92 28.9336C215.433 29.5078 216.189 30.6562 216.189 32.3789ZM222.998 24.3398C223.481 23.9661 224.62 23.1823 226.416 21.9883L227.332 21.373C227.724 21.373 228.152 21.6374 228.617 22.166C229.091 22.6764 229.328 23.2051 229.328 23.752C229.328 23.9434 229.16 24.2214 228.822 24.5859C228.485 24.9505 226.872 26.0716 223.982 27.9492C223.472 27.9492 223.007 27.7624 222.588 27.3887C222.187 27.0059 221.986 26.5273 221.986 25.9531C221.986 25.388 222.324 24.8503 222.998 24.3398ZM231.68 35.1816C231.68 36.8587 231.37 37.8477 230.75 38.1484H222.137C222.137 38.2852 222.314 38.5723 222.67 39.0098C223.044 39.4473 223.736 39.666 224.748 39.666C226.607 39.666 227.893 39.4199 228.604 38.9277L228.959 38.6816C229.068 38.6816 229.465 38.7956 230.148 39.0234C230.85 39.2604 231.219 39.7344 231.256 40.4453C231.274 40.6458 231.283 40.901 231.283 41.2109C231.283 41.5664 231.219 41.8945 231.092 42.1953C230.964 42.487 230.604 42.8607 230.012 43.3164C229.419 43.7721 227.865 44 225.35 44C223.809 44 222.479 43.7904 221.357 43.3711C220.218 42.9427 219.193 42.1999 218.281 41.1426C217.361 40.0579 216.9 38.4811 216.9 36.4121C216.9 35.7012 217.001 34.9173 217.201 34.0605C217.411 33.1855 217.698 32.4746 218.062 31.9277C218.436 31.3535 219.042 30.6699 219.881 29.877C220.738 29.0658 222.355 28.6602 224.734 28.6602C227.004 28.6602 228.686 29.1979 229.779 30.2734C230.253 30.7201 230.691 31.3581 231.092 32.1875C231.484 32.9805 231.68 33.9785 231.68 35.1816ZM226.717 35.209V35.0176C226.717 34.4251 226.535 33.9421 226.17 33.5684C225.787 33.1855 225.263 32.9941 224.598 32.9941C223.23 32.9941 222.52 33.7324 222.465 35.209H226.717Z" fill="white"/>
</g>
<defs>
<filter id="filter0_d_194_338" x="0" y="0" width="384" height="84" filterUnits="userSpaceOnUse" color-interpolation-filters="sRGB">
<feFlood flood-opacity="0" result="BackgroundImageFix"/>
<feColorMatrix in="SourceAlpha" type="matrix" values="0 0 0 0 0 0 0 0 0 0 0 0 0 0 0 0 0 0 127 0" result="hardAlpha"/>
<feOffset dy="4"/>
<feGaussianBlur stdDeviation="4"/>
<feColorMatrix type="matrix" values="0 0 0 0 0.645833 0 0 0 0 0.0592014 0 0 0 0 0.0592014 0 0 0 0.45 0"/>
<feBlend mode="normal" in2="BackgroundImageFix" result="effect1_dropShadow_194_338"/>
<feBlend mode="normal" in="SourceGraphic" in2="effect1_dropShadow_194_338" result="shape"/>
</filter>
<linearGradient id="paint0_linear_194_338" x1="376" y1="41.4966" x2="259" y2="42" gradientUnits="userSpaceOnUse">
<stop offset="0.28125" stop-color="#93000A"/>
<stop offset="1" stop-color="#D23333" stop-opacity="0"/>
</linearGradient>
<linearGradient id="paint1_linear_194_338" x1="8" y1="41.4966" x2="125" y2="42" gradientUnits="userSpaceOnUse">
<stop offset="0.28125" stop-color="#93000A"/>
<stop offset="1" stop-color="#D23333" stop-opacity="0"/>
</linearGradient>
<clipPath id="clip0_194_338">
<rect width="368" height="68" fill="white" transform="translate(8 4)"/>
</clipPath>
</defs>
</svg>
