<svg width="59" height="63" viewBox="0 0 59 63" fill="none" xmlns="http://www.w3.org/2000/svg">
<g filter="url(#filter0_d_2_1471)">
<path d="M45.6029 57.2154H13.3247C7.46632 57.2154 2.71143 52.4406 2.71143 46.5576V20.9237C2.71143 15.0407 7.46632 10.2659 13.3247 10.2659H45.6029C51.4613 10.2659 56.2162 15.0407 56.2162 20.9237V46.5576C56.2162 52.4406 51.4613 57.2154 45.6029 57.2154Z" fill="#F9B842"/>
<path d="M45.6029 57.2154H13.3247C7.46632 57.2154 2.71143 52.4406 2.71143 46.5576V20.9237C2.71143 15.0407 7.46632 10.2659 13.3247 10.2659H45.6029C51.4613 10.2659 56.2162 15.0407 56.2162 20.9237V46.5576C56.2162 52.4406 51.4613 57.2154 45.6029 57.2154Z" fill="#FFD27B"/>
<path d="M46.9824 5.94742C52.0781 5.94742 56.2163 10.4941 56.2163 16.1163V47.0465C56.2163 52.6524 51.0882 57.2154 45.9763 57.2154H34.584V5.94742H46.9824Z" fill="url(#paint0_linear_2_1471)"/>
<path d="M11.9453 5.94742C6.84963 5.94742 2.71141 10.4941 2.71141 16.1163V47.0465C2.71141 52.6524 7.83955 57.2154 12.9515 57.2154H24.3438V5.94742H11.9453Z" fill="url(#paint1_linear_2_1471)"/>
<path d="M45.6029 47.8613H13.3247C7.46632 47.8613 2.71143 43.0865 2.71143 37.2036V11.5859C2.71143 5.70299 7.46632 0.928192 13.3247 0.928192H45.6029C51.4613 0.928192 56.2162 5.70299 56.2162 11.5859V37.2199C56.2162 43.0865 51.4613 47.8613 45.6029 47.8613Z" fill="#FFDE32"/>
<path d="M28.3332 33.2432C28.2558 33.1676 27.9245 32.8823 27.6521 32.6165C25.9385 31.0581 23.1336 26.993 22.2775 24.8653C22.1399 24.5421 21.8488 23.7252 21.8301 23.2887C21.8301 22.8705 21.9262 22.4718 22.1212 22.0913C22.3937 21.617 22.8224 21.2366 23.3286 21.0281C23.6799 20.8939 24.7311 20.6854 24.7498 20.6854C25.8997 20.4769 27.7683 20.3623 29.8331 20.3623C31.8005 20.3623 33.5929 20.4769 34.7603 20.6476C34.779 20.6672 36.0852 20.8756 36.5326 21.1037C37.35 21.5219 37.8576 22.3389 37.8576 23.2131V23.2887C37.8375 23.8581 37.33 25.0555 37.3113 25.0555C36.4538 27.0685 33.7866 31.0399 32.0142 32.636C32.0142 32.636 31.5588 33.0855 31.2743 33.281C30.8656 33.5858 30.3594 33.737 29.8532 33.737C29.2882 33.737 28.762 33.5663 28.3332 33.2432" fill="white"/>
</g>
<defs>
<filter id="filter0_d_2_1471" x="0.711426" y="0.928192" width="57.5049" height="61.2872" filterUnits="userSpaceOnUse" color-interpolation-filters="sRGB">
<feFlood flood-opacity="0" result="BackgroundImageFix"/>
<feColorMatrix in="SourceAlpha" type="matrix" values="0 0 0 0 0 0 0 0 0 0 0 0 0 0 0 0 0 0 127 0" result="hardAlpha"/>
<feOffset dy="3"/>
<feGaussianBlur stdDeviation="1"/>
<feColorMatrix type="matrix" values="0 0 0 0 0.870588 0 0 0 0 0.6 0 0 0 0 0.34902 0 0 0 1 0"/>
<feBlend mode="normal" in2="BackgroundImageFix" result="effect1_dropShadow_2_1471"/>
<feBlend mode="normal" in="SourceGraphic" in2="effect1_dropShadow_2_1471" result="shape"/>
</filter>
<linearGradient id="paint0_linear_2_1471" x1="63.2829" y1="31.5824" x2="34.5874" y2="31.5824" gradientUnits="userSpaceOnUse">
<stop stop-color="#FFBE5C"/>
<stop offset="0.84375" stop-color="#FFA90B" stop-opacity="0"/>
</linearGradient>
<linearGradient id="paint1_linear_2_1471" x1="-4.35521" y1="31.5824" x2="24.3403" y2="31.5824" gradientUnits="userSpaceOnUse">
<stop stop-color="#FFBE5C"/>
<stop offset="0.84375" stop-color="#FFA90B" stop-opacity="0"/>
</linearGradient>
</defs>
</svg>
