<svg width="59" height="63" viewBox="0 0 59 63" fill="none" xmlns="http://www.w3.org/2000/svg">
<g filter="url(#filter0_d_2_1482)">
<path d="M45.6029 57.2154H13.3247C7.46632 57.2154 2.71143 52.4406 2.71143 46.5576V20.9237C2.71143 15.0407 7.46632 10.2659 13.3247 10.2659H45.6029C51.4613 10.2659 56.2162 15.0407 56.2162 20.9237V46.5576C56.2162 52.4406 51.4613 57.2154 45.6029 57.2154Z" fill="#F9B842"/>
<path d="M45.6029 57.2154H13.3247C7.46632 57.2154 2.71143 52.4406 2.71143 46.5576V20.9237C2.71143 15.0407 7.46632 10.2659 13.3247 10.2659H45.6029C51.4613 10.2659 56.2162 15.0407 56.2162 20.9237V46.5576C56.2162 52.4406 51.4613 57.2154 45.6029 57.2154Z" fill="#FFD27B"/>
<path d="M46.9824 5.94742C52.0781 5.94742 56.2163 10.4941 56.2163 16.1163V47.0465C56.2163 52.6524 51.0882 57.2154 45.9763 57.2154H34.584V5.94742H46.9824Z" fill="url(#paint0_linear_2_1482)"/>
<path d="M11.9453 5.94742C6.84963 5.94742 2.71141 10.4941 2.71141 16.1163V47.0465C2.71141 52.6524 7.83955 57.2154 12.9515 57.2154H24.3438V5.94742H11.9453Z" fill="url(#paint1_linear_2_1482)"/>
<path d="M45.6029 47.8613H13.3247C7.46632 47.8613 2.71143 43.0865 2.71143 37.2036V11.5859C2.71143 5.70299 7.46632 0.928192 13.3247 0.928192H45.6029C51.4613 0.928192 56.2162 5.70299 56.2162 11.5859V37.2199C56.2162 43.0865 51.4613 47.8613 45.6029 47.8613Z" fill="#FFDE32"/>
<path d="M29.8438 34.376C30.108 34.376 30.3662 34.2976 30.5858 34.1506C30.8055 34.0037 30.9767 33.7948 31.0777 33.5504C31.1788 33.306 31.2053 33.0371 31.1538 32.7776C31.1022 32.5182 30.975 32.2799 30.7882 32.0928C30.6014 31.9058 30.3634 31.7784 30.1044 31.7268C29.8453 31.6752 29.5767 31.7017 29.3327 31.8029C29.0886 31.9041 28.88 32.0756 28.7333 32.2955C28.5865 32.5154 28.5082 32.774 28.5082 33.0386C28.5082 33.3933 28.6489 33.7335 28.8994 33.9843C29.1498 34.2351 29.4896 34.376 29.8438 34.376ZM36.5219 34.376C36.7861 34.376 37.0443 34.2976 37.2639 34.1506C37.4836 34.0037 37.6548 33.7948 37.7559 33.5504C37.857 33.306 37.8834 33.0371 37.8319 32.7776C37.7803 32.5182 37.6531 32.2799 37.4663 32.0928C37.2795 31.9058 37.0416 31.7784 36.7825 31.7268C36.5234 31.6752 36.2548 31.7017 36.0108 31.8029C35.7667 31.9041 35.5581 32.0756 35.4114 32.2955C35.2646 32.5154 35.1863 32.774 35.1863 33.0386C35.1863 33.3933 35.327 33.7335 35.5775 33.9843C35.828 34.2351 36.1677 34.376 36.5219 34.376ZM36.5219 29.0261C36.7861 29.0261 37.0443 28.9477 37.2639 28.8007C37.4836 28.6538 37.6548 28.4449 37.7559 28.2005C37.857 27.9561 37.8834 27.6872 37.8319 27.4278C37.7803 27.1683 37.6531 26.93 37.4663 26.7429C37.2795 26.5559 37.0416 26.4285 36.7825 26.3769C36.5234 26.3253 36.2548 26.3518 36.0108 26.453C35.7667 26.5543 35.5581 26.7257 35.4114 26.9456C35.2646 27.1656 35.1863 27.4242 35.1863 27.6887C35.1863 28.0434 35.327 28.3836 35.5775 28.6344C35.828 28.8852 36.1677 29.0261 36.5219 29.0261ZM29.8438 29.0261C30.108 29.0261 30.3662 28.9477 30.5858 28.8007C30.8055 28.6538 30.9767 28.4449 31.0777 28.2005C31.1788 27.9561 31.2053 27.6872 31.1538 27.4278C31.1022 27.1683 30.975 26.93 30.7882 26.7429C30.6014 26.5559 30.3634 26.4285 30.1044 26.3769C29.8453 26.3253 29.5767 26.3518 29.3327 26.453C29.0886 26.5543 28.88 26.7257 28.7333 26.9456C28.5865 27.1656 28.5082 27.4242 28.5082 27.6887C28.5082 28.0434 28.6489 28.3836 28.8994 28.6344C29.1498 28.8852 29.4896 29.0261 29.8438 29.0261ZM39.1932 12.9765H37.8575V11.6391C37.8575 11.2843 37.7168 10.9441 37.4663 10.6933C37.2159 10.4425 36.8761 10.3016 36.5219 10.3016C36.1677 10.3016 35.828 10.4425 35.5775 10.6933C35.327 10.9441 35.1863 11.2843 35.1863 11.6391V12.9765H24.5013V11.6391C24.5013 11.2843 24.3606 10.9441 24.1101 10.6933C23.8596 10.4425 23.5199 10.3016 23.1657 10.3016C22.8114 10.3016 22.4717 10.4425 22.2212 10.6933C21.9708 10.9441 21.83 11.2843 21.83 11.6391V12.9765H20.4944C19.4317 12.9765 18.4126 13.3993 17.6611 14.1517C16.9097 14.9042 16.4875 15.9248 16.4875 16.9889V35.7135C16.4875 36.7777 16.9097 37.7982 17.6611 38.5507C18.4126 39.3032 19.4317 39.7259 20.4944 39.7259H39.1932C40.2558 39.7259 41.275 39.3032 42.0264 38.5507C42.7779 37.7982 43.2 36.7777 43.2 35.7135V16.9889C43.2 15.9248 42.7779 14.9042 42.0264 14.1517C41.275 13.3993 40.2558 12.9765 39.1932 12.9765ZM40.5288 35.7135C40.5288 36.0682 40.3881 36.4084 40.1376 36.6592C39.8871 36.9101 39.5474 37.051 39.1932 37.051H20.4944C20.1402 37.051 19.8005 36.9101 19.55 36.6592C19.2995 36.4084 19.1588 36.0682 19.1588 35.7135V23.6763H40.5288V35.7135ZM40.5288 21.0013H19.1588V16.9889C19.1588 16.6342 19.2995 16.294 19.55 16.0432C19.8005 15.7924 20.1402 15.6515 20.4944 15.6515H21.83V16.9889C21.83 17.3436 21.9708 17.6838 22.2212 17.9347C22.4717 18.1855 22.8114 18.3264 23.1657 18.3264C23.5199 18.3264 23.8596 18.1855 24.1101 17.9347C24.3606 17.6838 24.5013 17.3436 24.5013 16.9889V15.6515H35.1863V16.9889C35.1863 17.3436 35.327 17.6838 35.5775 17.9347C35.828 18.1855 36.1677 18.3264 36.5219 18.3264C36.8761 18.3264 37.2159 18.1855 37.4663 17.9347C37.7168 17.6838 37.8575 17.3436 37.8575 16.9889V15.6515H39.1932C39.5474 15.6515 39.8871 15.7924 40.1376 16.0432C40.3881 16.294 40.5288 16.6342 40.5288 16.9889V21.0013ZM23.1657 29.0261C23.4298 29.0261 23.6881 28.9477 23.9077 28.8007C24.1273 28.6538 24.2985 28.4449 24.3996 28.2005C24.5007 27.9561 24.5272 27.6872 24.4756 27.4278C24.4241 27.1683 24.2969 26.93 24.1101 26.7429C23.9233 26.5559 23.6853 26.4285 23.4262 26.3769C23.1672 26.3253 22.8986 26.3518 22.6545 26.453C22.4105 26.5543 22.2019 26.7257 22.0551 26.9456C21.9084 27.1656 21.83 27.4242 21.83 27.6887C21.83 28.0434 21.9708 28.3836 22.2212 28.6344C22.4717 28.8852 22.8114 29.0261 23.1657 29.0261ZM23.1657 34.376C23.4298 34.376 23.6881 34.2976 23.9077 34.1506C24.1273 34.0037 24.2985 33.7948 24.3996 33.5504C24.5007 33.306 24.5272 33.0371 24.4756 32.7776C24.4241 32.5182 24.2969 32.2799 24.1101 32.0928C23.9233 31.9058 23.6853 31.7784 23.4262 31.7268C23.1672 31.6752 22.8986 31.7017 22.6545 31.8029C22.4105 31.9041 22.2019 32.0756 22.0551 32.2955C21.9084 32.5154 21.83 32.774 21.83 33.0386C21.83 33.3933 21.9708 33.7335 22.2212 33.9843C22.4717 34.2351 22.8114 34.376 23.1657 34.376Z" fill="white"/>
</g>
<defs>
<filter id="filter0_d_2_1482" x="0.711426" y="0.928192" width="57.5049" height="61.2872" filterUnits="userSpaceOnUse" color-interpolation-filters="sRGB">
<feFlood flood-opacity="0" result="BackgroundImageFix"/>
<feColorMatrix in="SourceAlpha" type="matrix" values="0 0 0 0 0 0 0 0 0 0 0 0 0 0 0 0 0 0 127 0" result="hardAlpha"/>
<feOffset dy="3"/>
<feGaussianBlur stdDeviation="1"/>
<feColorMatrix type="matrix" values="0 0 0 0 0.870588 0 0 0 0 0.6 0 0 0 0 0.34902 0 0 0 1 0"/>
<feBlend mode="normal" in2="BackgroundImageFix" result="effect1_dropShadow_2_1482"/>
<feBlend mode="normal" in="SourceGraphic" in2="effect1_dropShadow_2_1482" result="shape"/>
</filter>
<linearGradient id="paint0_linear_2_1482" x1="63.2829" y1="31.5824" x2="34.5874" y2="31.5824" gradientUnits="userSpaceOnUse">
<stop stop-color="#FFBE5C"/>
<stop offset="0.84375" stop-color="#FFA90B" stop-opacity="0"/>
</linearGradient>
<linearGradient id="paint1_linear_2_1482" x1="-4.35521" y1="31.5824" x2="24.3403" y2="31.5824" gradientUnits="userSpaceOnUse">
<stop stop-color="#FFBE5C"/>
<stop offset="0.84375" stop-color="#FFA90B" stop-opacity="0"/>
</linearGradient>
</defs>
</svg>
