<svg width="950" height="657" viewBox="0 0 950 657" fill="none" xmlns="http://www.w3.org/2000/svg">
<path d="M39.3318 657C17.6536 657 0 638.847 0 616.556V56.444C0 34.1214 17.6536 16 39.3318 16H910.668C932.377 16 950 34.1527 950 56.444V616.556C950 638.879 932.346 657 910.668 657H39.3318Z" fill="#FFCA7B"/>
<path d="M39.3318 641C17.6536 641 0 622.835 0 600.528L0 40.4717C0 18.1339 17.6536 0 39.3318 0H910.668C932.377 0 950 18.1652 950 40.4717V600.528C950 622.866 932.346 641 910.668 641H39.3318Z" fill="#FDE8B3"/>
<path d="M910.853 629H39.1474C24.1401 629 12 616.457 12 601.021L12 39.9792C12 24.512 24.1706 12 39.1474 12H910.853C925.86 12 938 24.5435 938 39.9792V601.021C938 616.488 925.86 629 910.853 629Z" fill="#FFF6D4"/>
<path d="M910.853 629H39.1474C24.1401 629 12 616.478 12 601.068L12.0001 39.9318C12.0001 24.4909 24.1706 12 39.1474 12H910.853C925.86 12 938 24.5222 938 39.9318L938 601.068C938 616.509 925.86 629 910.853 629Z" stroke="#FFB489" stroke-width="3" stroke-miterlimit="2.61313" stroke-linecap="round" stroke-dasharray="10 10"/>
</svg>
