<svg width="1784" height="960" viewBox="0 0 1784 960" fill="none" xmlns="http://www.w3.org/2000/svg">
<path opacity="0.4" d="M1783.66 3.52142H-6.75937V960.442H1783.66V3.52142Z" fill="url(#paint0_linear_194_189)"/>
<path opacity="0.4" fill-rule="evenodd" clip-rule="evenodd" d="M657.307 3.52142C657.307 3.52142 755.512 834.147 1783.68 960.442H-6.75937V3.52142H657.307Z" fill="url(#paint1_linear_194_189)"/>
<path opacity="0.4" fill-rule="evenodd" clip-rule="evenodd" d="M1330.11 7.48305C1330.11 7.48305 1313.66 825.803 877.063 960.423H1783.68V3.50226L1330.11 7.48305Z" fill="url(#paint2_linear_194_189)"/>
<path fill-rule="evenodd" clip-rule="evenodd" d="M-6.75937 3.52142C-6.75937 3.52142 39.147 664.505 392.522 960.48C745.897 1256.46 392.522 960.48 392.522 960.48L-6.75937 960.442V3.52142Z" fill="url(#paint3_linear_194_189)"/>
<path fill-rule="evenodd" clip-rule="evenodd" d="M1330.11 7.48315C1330.11 7.48315 1334.48 803.583 861.683 968.997H846.966C846.966 968.997 1282.65 900.443 1330.11 7.48315Z" fill="url(#paint4_linear_194_189)"/>
<path fill-rule="evenodd" clip-rule="evenodd" d="M657.307 3.52142C657.307 3.52142 732.505 492.68 1138.5 733.307L1142.74 724.848C1142.74 724.848 790.586 567.339 657.307 3.52142Z" fill="url(#paint5_linear_194_189)"/>
<path fill-rule="evenodd" clip-rule="evenodd" d="M-6.43707 7.48315C-6.43707 7.48315 76.2266 529.081 292.652 978.7L280.531 982.528C280.531 982.528 51.3218 459.973 -6.43707 7.48315Z" fill="url(#paint6_linear_194_189)"/>
<g opacity="0.2">
<path d="M954.517 962.758L953.979 961.437C954.875 961.016 1043.91 918.089 1138.18 779.775C1225.19 652.122 1334.55 414.768 1361.46 9.07159L1362.8 9.16729C1350.92 188.475 1322.07 350.195 1277.06 489.79C1241.04 601.501 1194.67 699.375 1139.2 780.732C1044.72 919.294 955.394 962.337 954.517 962.758Z" fill="#FFFFBF"/>
<path d="M1010.45 965.207L1009.72 964.002C1010.68 963.332 1106.77 894.912 1200.4 743.642C1286.8 604.027 1388.69 363.266 1383.48 9.12906L1384.83 9.10992C1387.14 165.662 1368.89 313.334 1330.61 448.03C1299.98 555.799 1256.54 655.548 1201.47 744.503C1107.69 896.003 1011.42 964.537 1010.45 965.207Z" fill="#FFFFBF"/>
<path d="M1135.87 962.528L1134.79 961.666C1135.47 960.69 1204.53 861.477 1277.17 694.303C1344.22 540.028 1428.14 294.655 1447.15 1.83722L1448.49 1.93291C1440.1 131.328 1418.43 262.349 1384.11 391.361C1356.66 494.555 1321.09 596.697 1278.39 694.954C1205.66 862.242 1136.57 961.532 1135.87 962.528Z" fill="#FFFFBF"/>
<path d="M1228.7 960.365L1227.54 959.657C1366.22 694.533 1429.32 449.121 1457.8 289.947C1488.69 117.472 1486.74 6.25832 1486.72 5.16743L1488.06 5.12915C1488.08 6.23918 1490.03 117.548 1459.13 290.177C1440.97 391.553 1415.23 493.924 1382.57 594.439C1341.75 720.083 1289.97 843.2 1228.7 960.365Z" fill="#FFFFBF"/>
<path d="M1280.91 960.193L1279.76 959.427C1415.62 725.901 1469.82 478.9 1491.36 312.798C1514.7 132.821 1505.79 6.44968 1505.7 5.18655L1507.04 5.07172C1507.13 6.33485 1516.05 132.821 1492.7 312.951C1478.98 418.748 1456.98 522.057 1427.31 620.046C1390.22 742.532 1340.96 856.98 1280.91 960.193Z" fill="#FFFFBF"/>
<path d="M1330.63 964.92L1329.41 964.289C1440.87 717.231 1496.76 469.599 1524.05 305.353C1553.61 127.385 1556.85 6.31573 1556.89 5.12915L1558.23 5.16743C1558.19 6.37315 1554.95 127.558 1525.39 305.602C1498.09 469.944 1442.16 717.729 1330.63 964.92Z" fill="#FFFFBF"/>
<path d="M1372.26 962.452L1371.13 961.667C1499.93 750.283 1554.74 501.484 1578.01 329.965C1603.24 144.131 1597.96 6.52623 1597.89 5.1674L1599.23 5.10999C1599.28 6.48795 1604.58 144.208 1579.34 330.176C1564.51 439.399 1542.19 543.665 1513.02 640.046C1476.55 760.541 1429.19 869.018 1372.26 962.452Z" fill="#FFFFBF"/>
<path d="M1418.58 968.901L1417.47 968.116C1547.29 759.125 1613.21 509.043 1645.64 336.07C1680.78 148.629 1685.28 8.86109 1685.31 7.46399L1686.66 7.50227C1686.62 8.89937 1682.11 148.782 1646.94 336.338C1626.28 446.48 1599.26 551.282 1566.59 647.816C1525.77 768.484 1475.96 876.52 1418.58 968.901Z" fill="#FFFFBF"/>
<path d="M1506.95 964.959L1505.79 964.25C1611.98 764.599 1676.02 515.072 1711.04 340.912C1748.98 152.189 1761.98 8.84196 1762.1 7.42572L1763.45 7.55969C1763.32 8.99507 1750.32 152.399 1712.35 341.2C1677.31 515.455 1613.23 765.134 1506.95 964.959Z" fill="#FFFFBF"/>
<path d="M1621.79 964.882L1620.55 964.346C1681.57 804.962 1722.48 552.641 1746.04 369.046C1771.57 170.083 1782.82 6.73675 1782.93 5.10999L1784.27 5.20568C1784.16 6.83244 1772.92 170.217 1747.37 369.218C1723.79 552.89 1682.86 805.344 1621.79 964.882Z" fill="#FFFFBF"/>
<path d="M1662.14 964.882L1660.91 964.327C1712.28 834.167 1742.71 628.218 1759.2 478.364C1777.07 315.975 1782.85 182.657 1782.93 181.336L1784.27 181.394C1784.21 182.714 1778.41 316.071 1760.55 478.518C1744.04 628.467 1713.56 834.568 1662.14 964.882Z" fill="#FFFFBF"/>
<path d="M1742.52 957.743L1741.24 957.322C1786.22 804.445 1782.96 432.298 1782.91 428.547L1784.25 428.528C1784.3 432.279 1787.58 804.655 1742.52 957.743Z" fill="#FFFFBF"/>
<path d="M1129.05 754.321C1047.85 721.422 969.896 661.691 897.349 576.793C839.339 508.89 784.642 424.815 734.779 326.922C649.877 160.246 607.892 9.22463 607.48 7.7127L608.769 7.31079C609.181 8.82273 651.13 159.71 735.96 326.252C814.219 479.896 946.03 678.667 1129.51 752.982L1129.05 754.321Z" fill="#FFFFBF"/>
<path d="M1112.27 771.967C1035.3 743.164 958.366 685.04 883.598 599.224C823.816 530.593 765.269 444.203 709.587 342.463C614.803 169.222 560.481 9.32049 559.944 7.732L561.215 7.25354C561.752 8.84203 616.038 168.629 710.769 341.755C798.177 501.484 938.851 705.538 1112.72 770.627L1112.27 771.967Z" fill="#FFFFBF"/>
<path d="M1073.56 822.512C990.916 774.474 908.789 701.729 829.438 606.324C765.986 530.019 704.144 439.112 645.669 336.147C546.104 160.82 490.064 9.26305 489.509 7.75111L490.762 7.23438C491.317 8.74631 547.34 160.208 646.851 335.42C738.664 497.101 887.358 712.619 1074.22 821.248L1073.56 822.512Z" fill="#FFFFBF"/>
<path d="M987.335 892.443C904.51 846.128 822.778 770.647 744.393 668.122C681.711 586.133 621.015 486.747 564.008 372.721C466.932 178.619 413.506 7.08132 412.969 5.35886L414.24 4.89954C414.759 6.60285 468.167 178.045 565.19 372.051C654.711 551.072 800.72 786.436 987.944 891.161L987.335 892.443Z" fill="#FFFFBF"/>
<path d="M936.022 926.835C861.021 876.769 784.91 797.306 709.838 690.61C649.787 605.291 590.256 502.46 532.873 384.969C435.206 184.954 376.91 9.4736 376.337 7.732L377.608 7.25354C378.181 8.99514 436.441 184.399 534.09 384.319C624.184 568.794 767.167 812.445 936.756 925.61L936.022 926.835Z" fill="#FFFFBF"/>
<path d="M848.488 955.944C705.792 781.306 573.981 532.794 488.542 355.075C395.96 162.523 336.357 9.28216 335.766 7.77022L337.001 7.21521C337.592 8.74628 397.177 161.93 489.724 354.424C575.127 532.067 706.884 780.464 849.491 954.987L848.488 955.944Z" fill="#FFFFBF"/>
<path d="M772.27 960.997C705.147 895.601 637.881 804.483 572.352 690.188C519.946 598.764 468.507 492.393 419.486 374.022C336.034 172.475 287.89 3.77026 287.407 2.08608L288.696 1.66504C289.179 3.34922 337.306 171.978 420.739 373.429C497.727 559.339 621.373 811.985 773.183 959.906L772.27 960.997Z" fill="#FFFFBF"/>
<path d="M738.717 960.327C665.185 883.869 593.747 786.187 526.392 670.036C472.5 577.119 421.097 472.24 373.579 358.29C292.67 164.303 250.596 9.22479 250.184 7.69372L251.473 7.29181C251.885 8.84202 293.942 163.825 374.797 357.735C449.422 536.679 573.283 786.302 739.649 959.294L738.717 960.327Z" fill="#FFFFBF"/>
<path d="M671.756 963.466C535.881 807.315 407.973 556.2 324.611 373.046C234.285 174.619 175.326 11.0046 174.735 9.37782L175.989 8.86108C176.58 10.4878 235.52 174.064 325.811 372.433C409.137 555.492 536.973 806.473 672.741 962.49L671.756 963.466Z" fill="#FFFFBF"/>
<path d="M613.03 960.901C474.219 768.637 341.298 518.651 254.23 342.788C159.911 152.246 97.6042 5.26314 96.9776 3.80862L98.1951 3.21533C98.8217 4.66985 161.11 151.615 255.412 342.118C342.444 517.924 475.329 767.852 614.086 960.021L613.03 960.901Z" fill="#FFFFBF"/>
<path d="M542.667 960.959C406.344 801.268 277.685 548.622 193.768 364.797C102.85 165.643 43.3903 2.1435 42.7994 0.516737L44.0527 0C44.6436 1.62676 104.085 165.088 194.985 364.185C278.866 547.914 407.454 800.426 543.651 959.983L542.667 960.959Z" fill="#FFFFBF"/>
<path d="M410.874 960.94C306.349 837.191 198.279 584.583 126.018 394.462C47.7231 188.513 -6.54451 9.4927 -7.08163 7.71283L-5.81044 7.27264C-5.27331 9.05252 48.9943 188.035 127.254 393.945C199.479 583.951 307.477 836.406 411.859 959.983L410.874 960.94Z" fill="#FFFFBF"/>
<path d="M332.812 965.035C242.682 834.434 156.223 592.582 99.5558 412.681C38.1802 217.814 -2.42652 51.6545 -2.83832 50.0086L-1.53131 49.645C-1.13742 51.2909 39.4693 217.412 100.827 412.241C157.458 592.027 243.864 833.726 333.886 964.174L332.812 965.035Z" fill="#FFFFBF"/>
<path d="M198.781 964.901C97.1745 723.662 -6.84886 226.465 -7.8873 221.47L-6.58029 221.164C-5.54185 226.159 98.4457 723.202 200.016 964.308L198.781 964.901Z" fill="#FFFFBF"/>
<path d="M174.789 964.959C67.4893 762.398 -9.23012 398.921 -10 395.266L-8.69299 394.959C-7.92311 398.596 68.7605 761.881 175.953 964.251L174.789 964.959Z" fill="#FFFFBF"/>
<path d="M122.563 967.198C52.217 820.674 -4.98684 540.775 -5.54187 537.961L-4.23486 537.655C-3.66193 540.469 53.4882 820.176 123.762 966.528L122.563 967.198Z" fill="#FFFFBF"/>
<path d="M62.9596 979.044C22.2096 897.955 -5.29122 703.949 -5.55978 701.997L-4.23487 701.786C-3.96631 703.738 23.4987 897.515 64.1412 978.374L62.9596 979.044Z" fill="#FFFFBF"/>
<path d="M1324.94 52.6306C1176.69 -0.229671 669.786 40.6308 664.684 41.0519L664.576 39.6165C669.679 39.1955 1176.87 -1.68419 1325.37 51.2718L1324.94 52.6306Z" fill="#FFFFBF"/>
<path d="M690.519 123.347L690.34 121.931C694.136 121.414 1072.95 69.9891 1322.36 121.931L1322.11 123.347C1072.92 71.4245 694.315 122.83 690.519 123.347Z" fill="#FFFFBF"/>
<path d="M721.243 209.106L720.974 207.69C723.785 207.097 1005.94 148.112 1317.17 168.284L1317.09 169.719C1006.03 149.548 724.054 208.513 721.243 209.106Z" fill="#FFFFBF"/>
<path d="M752.629 282.119L752.396 280.703C755.888 280.033 1104.55 215.135 1307.84 250.407L1307.62 251.823C1104.57 216.608 756.12 281.469 752.629 282.119Z" fill="#FFFFBF"/>
<path d="M770.283 316.243L769.996 314.846C772.807 314.214 1052.99 252.034 1298.76 288.435L1298.58 289.851C1053.04 253.488 773.076 315.612 770.283 316.243Z" fill="#FFFFBF"/>
<path d="M793.003 369.18L792.788 367.764C795.689 367.266 1084.98 317.736 1285.85 356.089L1285.62 357.505C1084.97 319.171 795.903 368.663 793.003 369.18Z" fill="#FFFFBF"/>
<path d="M1283.7 384.318C1128.04 361.027 807.452 383.266 804.229 383.496L804.139 382.06C807.362 381.83 1128.1 359.592 1283.9 382.902L1283.7 384.318Z" fill="#FFFFBF"/>
<path d="M856.957 433.963L856.796 432.547C859.284 432.203 1108.21 399.208 1269.85 420.126L1269.68 421.543C1108.21 400.643 859.446 433.638 856.957 433.963Z" fill="#FFFFBF"/>
<path d="M893.32 487.57L893.213 486.135C895.719 485.924 1145.45 465.35 1256.15 472.853L1256.06 474.288C1145.46 466.805 895.827 487.36 893.32 487.57Z" fill="#FFFFBF"/>
<path d="M971.848 587.319L971.633 585.903C972.94 585.674 1103.46 562.554 1220.9 570.057L1220.82 571.492C1103.55 564.009 973.155 587.09 971.848 587.319Z" fill="#FFFFBF"/>
<path d="M1044.11 664.409L1043.84 663.012C1044.81 662.801 1140.94 641.367 1190.64 646.936L1190.49 648.371C1140.99 642.802 1045.08 664.199 1044.11 664.409Z" fill="#FFFFBF"/>
</g>
<g style="mix-blend-mode:multiply" opacity="0.3">
<path fill-rule="evenodd" clip-rule="evenodd" d="M1319.94 9.10992C1319.94 9.10992 1322.25 368.453 1105.41 702.552L1131.75 719.336C1131.75 719.336 1033.65 905.017 831.103 962.088L877.063 960.423C877.045 960.442 1295.04 848.042 1319.94 9.10992Z" fill="url(#paint7_linear_194_189)"/>
</g>
<g style="mix-blend-mode:multiply" opacity="0.3">
<path fill-rule="evenodd" clip-rule="evenodd" d="M-2.17587 42.315C-2.17587 42.315 119.483 655.797 304.792 996.365L370.93 1004.94C370.912 1004.94 130.978 661.002 -2.17587 42.315Z" fill="url(#paint8_linear_194_189)"/>
</g>
<defs>
<linearGradient id="paint0_linear_194_189" x1="888.457" y1="960.433" x2="888.457" y2="3.51264" gradientUnits="userSpaceOnUse">
<stop offset="0.0171" stop-color="#FFC42C"/>
<stop offset="0.9665" stop-color="#FFD600"/>
</linearGradient>
<linearGradient id="paint1_linear_194_189" x1="888.457" y1="960.433" x2="888.457" y2="3.51264" gradientUnits="userSpaceOnUse">
<stop offset="0.0171" stop-color="#FF8B2C"/>
<stop offset="0.0422" stop-color="#FF8D2A"/>
<stop offset="0.3782" stop-color="#FFA413"/>
<stop offset="0.6939" stop-color="#FFB105"/>
<stop offset="0.9665" stop-color="#FFB600"/>
</linearGradient>
<linearGradient id="paint2_linear_194_189" x1="1330.36" y1="960.433" x2="1330.36" y2="3.51264" gradientUnits="userSpaceOnUse">
<stop offset="0.0171" stop-color="#FFA12C"/>
<stop offset="0.9665" stop-color="#FFC500"/>
</linearGradient>
<linearGradient id="paint3_linear_194_189" x1="271.409" y1="1092.01" x2="271.409" y2="3.5126" gradientUnits="userSpaceOnUse">
<stop offset="0.0171" stop-color="#FFA12C"/>
<stop offset="0.9665" stop-color="#FFB600"/>
</linearGradient>
<linearGradient id="paint4_linear_194_189" x1="1088.54" y1="968.996" x2="1088.54" y2="7.49118" gradientUnits="userSpaceOnUse">
<stop offset="0.0171" stop-color="#FFAE2C"/>
<stop offset="0.9665" stop-color="#FFCD00"/>
</linearGradient>
<linearGradient id="paint5_linear_194_189" x1="900.018" y1="733.301" x2="900.018" y2="3.51264" gradientUnits="userSpaceOnUse">
<stop offset="0.0171" stop-color="#FFAE2C"/>
<stop offset="0.9665" stop-color="#FFCD00"/>
</linearGradient>
<linearGradient id="paint6_linear_194_189" x1="143.104" y1="982.532" x2="143.104" y2="7.49117" gradientUnits="userSpaceOnUse">
<stop offset="0.0171" stop-color="#FFAE2C"/>
<stop offset="0.9665" stop-color="#FFCD00"/>
</linearGradient>
<linearGradient id="paint7_linear_194_189" x1="831.099" y1="485.607" x2="1319.94" y2="485.607" gradientUnits="userSpaceOnUse">
<stop offset="0.00558659" stop-color="#DB5098"/>
<stop offset="1" stop-color="#FFFED1"/>
</linearGradient>
<linearGradient id="paint8_linear_194_189" x1="-2.18286" y1="523.627" x2="370.916" y2="523.627" gradientUnits="userSpaceOnUse">
<stop offset="0.00558659" stop-color="#DB5098"/>
<stop offset="1" stop-color="#FFFED1"/>
</linearGradient>
</defs>
</svg>
