<svg width="539" height="600" viewBox="0 0 539 600" fill="none" xmlns="http://www.w3.org/2000/svg">
<path d="M43.5713 600C19.5227 600 0 581.847 0 559.555V56.3727C0 34.0495 19.5565 15.9275 43.5713 15.9275H495.429C519.477 15.9275 539 34.0808 539 56.3727V559.555C539 581.878 519.444 600 495.429 600H43.5713Z" fill="#FFCA7B"/>
<path d="M43.5713 584.324C19.5227 584.324 0 566.17 0 543.878V40.6962C0 18.3729 19.5565 0.250977 43.5713 0.250977H495.429C519.477 0.250977 539 18.4043 539 40.6962V543.878C539 566.202 519.444 584.324 495.429 584.324H43.5713Z" fill="#FDE8B3"/>
<path d="M495.429 571.783H43.5713C26.9534 571.783 13.5104 559.273 13.5104 543.879V40.6963C13.5104 25.2707 26.9872 12.7922 43.5713 12.7922H495.429C512.047 12.7922 525.489 25.302 525.489 40.6963V543.879C525.489 559.304 512.047 571.783 495.429 571.783Z" fill="#FFF6D4"/>
<path d="M495.429 571.783H43.5713C26.9534 571.783 13.5104 559.273 13.5104 543.879V40.6963C13.5104 25.2707 26.9872 12.7922 43.5713 12.7922H495.429C512.047 12.7922 525.489 25.302 525.489 40.6963V543.879C525.489 559.304 512.047 571.783 495.429 571.783Z" stroke="#FFB489" stroke-width="3" stroke-miterlimit="2.61313" stroke-linecap="round" stroke-dasharray="10 10"/>
</svg>
