<svg width="950" height="600" viewBox="0 0 950 600" fill="none" xmlns="http://www.w3.org/2000/svg">
<path d="M39.3318 600C17.6536 600 0 581.839 0 559.538V56.1443C0 33.8117 17.6536 15.6821 39.3318 15.6821H910.668C932.377 15.6821 950 33.8431 950 56.1443V559.538C950 581.87 932.346 600 910.668 600H39.3318Z" fill="#FFCA7B"/>
<path d="M39.3318 584.318C17.6536 584.318 0 566.157 0 543.856V40.4622C0 18.1296 17.6536 0 39.3318 0H910.668C932.377 0 950 18.1609 950 40.4622V543.856C950 566.188 932.346 584.318 910.668 584.318H39.3318Z" fill="#FDE8B3"/>
<path d="M910.668 571.771H39.3318C24.3308 571.771 12.1959 559.256 12.1959 543.855V40.4614C12.1959 25.0293 24.3613 12.5457 39.3318 12.5457H910.668C925.669 12.5457 937.804 25.0607 937.804 40.4614V543.855C937.804 559.287 925.669 571.771 910.668 571.771Z" fill="#FFF6D4"/>
<path d="M910.668 571.771H39.3318C24.3308 571.771 12.1959 559.256 12.1959 543.855V40.4614C12.1959 25.0293 24.3613 12.5457 39.3318 12.5457H910.668C925.669 12.5457 937.804 25.0607 937.804 40.4614V543.855C937.804 559.287 925.669 571.771 910.668 571.771Z" stroke="#FFB489" stroke-width="3" stroke-miterlimit="2.61313" stroke-linecap="round" stroke-dasharray="10 10"/>
</svg>
