<svg width="1519" height="654" viewBox="0 0 1519 654" fill="none" xmlns="http://www.w3.org/2000/svg">
<path d="M39.3318 654C17.6536 654 0 634.628 0 610.84V73.8873C0 50.0658 17.6536 30.7276 39.3318 30.7276H1479.67C1501.38 30.7276 1519 50.0993 1519 73.8873V610.84C1519 634.662 1501.35 654 1479.67 654H39.3318Z" fill="#FFCA7B"/>
<path d="M39.3447 637C17.6594 637 0 617.202 0 592.89V44.1103C0 19.7641 17.6594 0 39.3447 0H1479.66C1501.37 0 1519 19.7983 1519 44.1103V592.89C1519 617.236 1501.34 637 1479.66 637H39.3447Z" fill="#FDE8B3"/>
<path d="M1479.87 624H39.1304C24.1325 624 12 610.304 12 593.45V42.5502C12 25.6618 24.1629 12 39.1304 12H1479.87C1494.87 12 1507 25.6961 1507 42.5502V318V593.45C1507 610.338 1494.87 624 1479.87 624Z" fill="#FFF6D4"/>
<path d="M1479.86 624H39.1394C24.1365 624 12 610.304 12 593.45V42.5502C12 25.6618 24.167 12 39.1394 12H1479.86C1494.86 12 1507 25.6961 1507 42.5502V593.45C1507 610.338 1494.86 624 1479.86 624Z" stroke="#FFB489" stroke-width="3" stroke-miterlimit="2.61313" stroke-linecap="round" stroke-dasharray="10 10"/>
</svg>
