<svg width="388" height="80" viewBox="0 0 388 80" fill="none" xmlns="http://www.w3.org/2000/svg">
<path d="M368.687 63.0601C368.687 63.0601 269.539 80 194 80C110.736 80 19.3126 63.0601 19.3126 63.0601C8.64261 63.0601 0 56.7382 0 48.9435V20.0804C0 12.2812 8.64881 5.96384 19.3126 5.96384L194 3.66168L368.687 5.96384C379.357 5.96384 388 12.2857 388 20.0804V48.9435C388.006 56.7382 379.357 63.0601 368.687 63.0601Z" fill="#C81212"/>
<path d="M368.687 59.3984C368.687 59.3984 269.539 76.3383 194 76.3383C110.736 76.3383 19.3126 59.3984 19.3126 59.3984C8.64261 59.3984 0 53.0765 0 45.2818V16.4187C0 8.6195 8.64881 2.30216 19.3126 2.30216L194 0L368.687 2.30216C379.357 2.30216 388 8.62403 388 16.4187V45.2818C388.006 53.0811 379.357 59.3984 368.687 59.3984Z" fill="url(#paint0_linear_177_21)"/>
<path d="M365.135 59.2447C365.135 59.2447 268.287 75 194.5 75C113.167 75 23.8646 59.2447 23.8646 59.2447C13.4421 59.2447 5 53.3649 5 46.1153V19.2706C5 12.0167 13.4482 6.14117 23.8646 6.14117L194.5 4L365.135 6.14117C375.558 6.14117 384 12.021 384 19.2706V46.1153C384.006 53.3691 375.558 59.2447 365.135 59.2447Z" stroke="white" stroke-linecap="round" stroke-dasharray="5 5"/>
<defs>
<linearGradient id="paint0_linear_177_21" x1="194" y1="-13" x2="195.27" y2="79.8515" gradientUnits="userSpaceOnUse">
<stop stop-color="#FF000A"/>
<stop offset="1" stop-color="#C2000B"/>
</linearGradient>
</defs>
</svg>
