<svg width="195" height="55" viewBox="0 0 195 55" fill="none" xmlns="http://www.w3.org/2000/svg">
<path d="M20.4648 2.14453C36.3086 2.14453 44.2305 7.95703 44.2305 19.582C44.2305 25.2305 42.2148 30 38.1836 33.8906C34.1523 37.7812 29.1602 39.7266 23.207 39.7266H19.4453V51.6094C18.2031 53.2031 15.2031 54 10.4453 54C7 54 4.46875 53.0977 2.85156 51.293C1.25781 49.4883 0.460938 47.2266 0.460938 44.5078L0.144531 6.85547C0.144531 5.98828 2.73438 4.99219 7.91406 3.86719C13.0703 2.71875 17.2539 2.14453 20.4648 2.14453ZM21.4141 27.2109C25.4922 27.2109 27.5312 25.4414 27.5312 21.9023C27.5312 18.5977 25.8438 16.9336 22.4688 16.9102C20.6875 16.9102 19.3516 17.2734 18.4609 18V26.5781C18.7422 27 19.7266 27.2109 21.4141 27.2109ZM93.9062 47.0039C93.9062 48.1758 93.332 49.4414 92.1836 50.8008C91.7383 51.3164 90.8242 51.9844 89.4414 52.8047C88.082 53.6016 86.1367 54 83.6055 54C79.1758 54 76.1289 51.5508 74.4648 46.6523C74.043 45.4336 73.6094 44.0977 73.1641 42.6445L72.4961 40.4648L72.4258 39.9023C69.5898 39.3398 66.9531 39.3398 64.5156 39.9023C62.3828 44.9648 61.2344 48.3164 61.0703 49.957C60.9062 50.3086 60.6484 50.6836 60.2969 51.082C59.8984 51.5977 59.043 52.207 57.7305 52.9102C56.418 53.6367 54.8945 54 53.1602 54C50.2539 54 47.875 53.2383 46.0234 51.7148C44.1953 50.168 43.2812 48.2227 43.2812 45.8789C43.2812 44.3086 43.5508 42.7148 44.0898 41.0977C44.043 41.4492 48.4961 29.332 57.4492 4.74609C58.1758 4.16016 59.5352 3.58594 61.5273 3.02344C63.4961 2.4375 66.1562 2.14453 69.5078 2.14453C72.8359 2.14453 75.4492 2.84766 77.3477 4.25391C79.2461 5.58984 81.0273 8.35547 82.6914 12.5508C84.3555 16.7227 85.7266 20.7422 86.8047 24.6094C87.8594 28.2422 88.5156 30.457 88.7734 31.2539L93.9062 47.0039ZM66.3086 29.5312H71.3711L69.5781 18.2109C69.5781 17.4844 69.4023 17.1211 69.0508 17.1211C68.8633 17.168 68.6992 17.5547 68.5586 18.2812L66.3086 29.5312ZM116.02 2.14453C131.816 2.14453 139.715 7.95703 139.715 19.582C139.715 25.2539 138.25 29.4492 135.32 32.168C135.133 32.2852 135.039 32.5078 135.039 32.8359C135.039 34.0078 136.258 36.6914 138.695 40.8867C141.156 45.0586 142.387 47.2031 142.387 47.3203C142.199 49.3359 140.98 50.9648 138.73 52.207C136.48 53.4727 133.973 54.1172 131.207 54.1406C128.16 54.1406 125.629 52.6172 123.613 49.5703C122.676 48.1641 121.902 46.8984 121.293 45.7734C120.66 44.5547 120.098 43.2656 119.605 41.9062C119.066 40.4297 118.785 39.6797 118.762 39.6562H114.93V51.5391C113.711 53.1797 110.734 54 106 54C102.555 54 100.023 53.0859 98.4062 51.2578C96.8125 49.4062 96.0156 47.1328 96.0156 44.4375L95.6992 6.85547C95.6992 5.98828 98.2773 4.99219 103.434 3.86719C108.543 2.71875 112.738 2.14453 116.02 2.14453ZM116.898 27.2109C120.977 27.2109 123.016 25.4414 123.016 21.9023C123.016 18.5977 121.352 16.9336 118.023 16.9102C116.242 16.9102 114.906 17.2734 114.016 18V26.5078C114.273 26.9766 115.234 27.2109 116.898 27.2109ZM193.68 15.0117C193.68 17.8945 192.953 21.3164 191.5 25.2773C190.07 29.168 187.891 32.4023 184.961 34.9805C186.953 37.3242 188.77 39.4922 190.41 41.4844C192.824 44.3672 194.008 45.832 193.961 45.8789C193.703 47.4961 193.07 49.0547 192.062 50.5547C191.055 52.0547 189.707 53.0508 188.02 53.543C186.379 54.0352 185.055 54.2812 184.047 54.2812C181.727 54.2812 179.629 53.7305 177.754 52.6289C175.949 51.5742 174.273 49.793 172.727 47.2852C171.25 44.8477 170.312 42.2109 169.914 39.375L166.117 39.4453V48.9023C165.695 50.1445 164.781 51.3281 163.375 52.4531C161.969 53.5781 160.141 54.1406 157.891 54.1406C149.547 54.1406 145.375 49.8164 145.375 41.168L144.848 4.88672C147.707 3.17578 150.953 2.32031 154.586 2.32031C158.219 2.32031 161.113 3.10547 163.27 4.67578C165.449 6.22266 166.539 8.46094 166.539 11.3906L166.398 25.6289C166.797 25.7227 167.348 25.7695 168.051 25.7695C171.309 25.7695 172.938 24.1406 172.938 20.8828L173.008 7.27734C173.008 4.91016 172.984 3.70312 172.938 3.65625L175.117 2.88281C180.789 1.5 185.301 1.88672 188.652 4.04297C192.004 6.19922 193.68 9.85547 193.68 15.0117Z" fill="white"/>
</svg>
