<svg width="142" height="641" viewBox="0 0 142 641" fill="none" xmlns="http://www.w3.org/2000/svg">
<path d="M139.686 635.013L97.3042 628.774L79.5 607L75.184 598.832V41.2468L79.5 33.5L97.3042 11.3048L139.686 5.06562C139.686 5.06562 149.832 0.927036 114.603 0.0178029C85.9604 -0.734666 75.184 25 75.184 25C67.184 41 51.5 45 40 25C31.5664 10.3329 0 0.0178029 0 0.0178029L28.5 20.5L39.7662 42.4696V597.64L31 620L0 640.092C0 640.092 22.8451 635.58 39.7662 616.486C51.5 593.986 66 595.486 75.184 613.486C75.184 613.486 85.9604 640.844 114.603 640.092C149.801 639.151 139.686 635.013 139.686 635.013ZM57.2382 546.805C50.4635 546.805 45.0122 541.35 45.0122 534.64C45.0122 527.899 50.495 522.475 57.2382 522.475C63.9815 522.475 69.4643 527.931 69.4643 534.64C69.4958 541.35 64.013 546.805 57.2382 546.805ZM57.2382 510.279C50.4635 510.279 45.0122 504.823 45.0122 498.114C45.0122 491.373 50.495 485.949 57.2382 485.949C63.9815 485.949 69.4643 491.404 69.4643 498.114C69.4958 504.823 64.013 510.279 57.2382 510.279ZM57.2382 475.069C50.4635 475.069 45.0122 469.614 45.0122 462.904C45.0122 456.164 50.495 450.74 57.2382 450.74C63.9815 450.74 69.4643 456.195 69.4643 462.904C69.4958 469.614 64.013 475.069 57.2382 475.069ZM57.2382 438.7C50.4635 438.7 45.0122 433.245 45.0122 426.535C45.0122 419.794 50.495 414.37 57.2382 414.37C63.9815 414.37 69.4643 419.826 69.4643 426.535C69.4958 433.245 64.013 438.7 57.2382 438.7ZM57.2382 403.303C50.4635 403.303 45.0122 397.847 45.0122 391.138C45.0122 384.397 50.495 378.973 57.2382 378.973C63.9815 378.973 69.4643 384.428 69.4643 391.138C69.4958 397.879 64.013 403.303 57.2382 403.303ZM57.2382 367.121C50.4635 367.121 45.0122 361.666 45.0122 354.957C45.0122 348.216 50.495 342.792 57.2382 342.792C63.9815 342.792 69.4643 348.247 69.4643 354.957C69.4958 361.666 64.013 367.121 57.2382 367.121ZM57.2382 331.567C50.4635 331.567 45.0122 326.112 45.0122 319.402C45.0122 312.661 50.495 307.237 57.2382 307.237C63.9815 307.237 69.4643 312.693 69.4643 319.402C69.4958 326.112 64.013 331.567 57.2382 331.567ZM57.2382 295.511C50.4635 295.511 45.0122 290.056 45.0122 283.347C45.0122 276.637 50.495 271.182 57.2382 271.182C63.9815 271.182 69.4643 276.637 69.4643 283.347C69.4643 290.056 64.013 295.511 57.2382 295.511ZM57.2382 259.832C50.4635 259.832 45.0122 254.377 45.0122 247.667C45.0122 240.926 50.495 235.502 57.2382 235.502C63.9815 235.502 69.4643 240.958 69.4643 247.667C69.4958 254.377 64.013 259.832 57.2382 259.832ZM57.2382 223.933C50.4635 223.933 45.0122 218.478 45.0122 211.768C45.0122 205.027 50.495 199.603 57.2382 199.603C63.9815 199.603 69.4643 205.058 69.4643 211.768C69.4958 218.478 64.013 223.933 57.2382 223.933ZM57.2382 188.065C50.4635 188.065 45.0122 182.61 45.0122 175.9C45.0122 169.159 50.495 163.735 57.2382 163.735C63.9815 163.735 69.4643 169.191 69.4643 175.9C69.4958 182.61 64.013 188.065 57.2382 188.065ZM57.2382 152.354C50.4635 152.354 45.0122 146.899 45.0122 140.189C45.0122 133.48 50.495 128.024 57.2382 128.024C63.9815 128.024 69.4643 133.48 69.4643 140.189C69.4643 146.899 64.013 152.354 57.2382 152.354ZM57.2382 116.33C50.4635 116.33 45.0122 110.874 45.0122 104.165C45.0122 97.4554 50.495 92 57.2382 92C63.9815 92 69.4643 97.4554 69.4643 104.165C69.4643 110.874 64.013 116.33 57.2382 116.33Z" fill="#FDE8B3"/>
</svg>
