<svg width="16" height="16" viewBox="0 0 16 16" fill="none" xmlns="http://www.w3.org/2000/svg">
<path fill-rule="evenodd" clip-rule="evenodd" d="M15.9917 12.628C15.9419 12.1239 15.6717 11.674 15.2503 11.3928L12.3929 9.48742C11.7287 9.0452 10.8349 9.13341 10.2694 9.69841L9.5175 10.4497C9.07635 10.3862 8.02747 10.1237 6.95172 9.04793C5.87597 7.9722 5.61349 6.92333 5.54989 6.48219L6.30122 5.73032C6.86623 5.16531 6.95501 4.27211 6.51165 3.60628L4.60677 0.749568C4.32562 0.328143 3.87572 0.0580039 3.37153 0.00813614C2.86735 -0.0411704 2.3736 0.135256 2.01576 0.493121L0.824938 1.68336C0.25779 2.25054 -0.0414226 3.02541 0.00463022 3.80961C0.0944911 5.33635 0.755953 8.40788 4.17388 11.8257C7.59238 15.2436 10.6634 15.9051 12.1902 15.9949C12.958 16.0429 13.7421 15.7496 14.3159 15.1746L15.5067 13.9837C15.8646 13.6259 16.0416 13.1316 15.9917 12.628ZM1.00291 3.75098C1.07937 5.04951 1.64748 7.88517 4.88093 11.1186C8.11517 14.3522 10.9505 14.9202 12.2489 14.9967L12.2526 14.9969C12.7285 15.0266 13.2335 14.8436 13.6081 14.4682L13.6088 14.4675L14.7996 13.2767C14.9459 13.1304 15.0169 12.9316 14.9966 12.7265C14.9762 12.5208 14.8678 12.3398 14.6955 12.2248L11.8387 10.3198C11.5712 10.1418 11.2048 10.1774 10.9762 10.4058L9.8703 11.5109L9.3749 11.4395C8.76777 11.352 7.504 11.0144 6.24461 9.75502C4.9852 8.49563 4.64764 7.23188 4.56013 6.62488L4.4887 6.12944L5.59385 5.02349C5.8217 4.79564 5.85867 4.4302 5.67949 4.1608L3.77489 1.30451C3.65998 1.13238 3.47932 1.02382 3.27365 1.00332C3.06664 0.983232 2.86851 1.05456 2.72291 1.20018L1.53207 2.39043C1.1619 2.76073 0.974066 3.25916 1.00291 3.75098Z" fill="white"/>
</svg>
