<svg width="284" height="80" viewBox="0 0 284 80" fill="none" xmlns="http://www.w3.org/2000/svg">
<path d="M269.864 63.0601C269.864 63.0601 197.292 80 142 80C81.054 80 14.136 63.0601 14.136 63.0601C6.32603 63.0601 0 56.7382 0 48.9435V20.0804C0 12.2812 6.33057 5.96384 14.136 5.96384L142 3.66168L269.864 5.96384C277.674 5.96384 284 12.2857 284 20.0804V48.9435C284.005 56.7382 277.674 63.0601 269.864 63.0601Z" fill="#C81212"/>
<path d="M269.864 59.3984C269.864 59.3984 197.292 76.3383 142 76.3383C81.054 76.3383 14.136 59.3984 14.136 59.3984C6.32603 59.3984 0 53.0765 0 45.2818V16.4187C0 8.6195 6.33057 2.30216 14.136 2.30216L142 0L269.864 2.30216C277.674 2.30216 284 8.62403 284 16.4187V45.2818C284.005 53.0811 277.674 59.3984 269.864 59.3984Z" fill="url(#paint0_linear_194_403)"/>
<path d="M266.312 59.2447C266.312 59.2447 196.039 75 142.5 75C83.4854 75 18.688 59.2447 18.688 59.2447C11.1256 59.2447 5 53.3649 5 46.1153V19.2706C5 12.0167 11.13 6.14117 18.688 6.14117L142.5 4L266.312 6.14117C273.874 6.14117 280 12.021 280 19.2706V46.1153C280.004 53.3691 273.874 59.2447 266.312 59.2447Z" stroke="white" stroke-linecap="round" stroke-dasharray="5 5"/>
<defs>
<linearGradient id="paint0_linear_194_403" x1="142" y1="-13" x2="143.734" y2="79.8365" gradientUnits="userSpaceOnUse">
<stop stop-color="#FF000A"/>
<stop offset="1" stop-color="#C2000B"/>
</linearGradient>
</defs>
</svg>
