<svg width="322" height="84" viewBox="0 0 322 84" fill="none" xmlns="http://www.w3.org/2000/svg">
<path d="M5.09375 79.4844C5 73.9766 4.92969 68.0469 4.88281 61.6953H2.63281C1.90625 61.6953 1.30859 61.3438 0.839844 60.6406C0.371094 59.9141 0.136719 58.918 0.136719 57.6523C0.136719 53.8086 1.57812 51.8867 4.46094 51.8867L4.74219 51.8164L4.60156 34.9766C4.60156 34.7891 5.44531 34.4141 7.13281 33.8516C8.86719 33.2422 11.3633 32.6445 14.6211 32.0586C17.9961 31.4492 21.1016 31.1445 23.9375 31.1445C26.8672 31.1445 29.3633 31.3203 31.4258 31.6719C33.4648 31.9766 35.6562 32.6914 38 33.8164C40.2734 34.8945 42.1953 36.3477 43.7656 38.1758C45.3359 39.957 46.6367 42.4648 47.668 45.6992C48.6992 48.9336 49.2148 52.6953 49.2148 56.9844C49.2148 61.2734 48.6641 65.0703 47.5625 68.375C46.4844 71.6328 45.1016 74.2109 43.4141 76.1094C41.75 77.9844 39.7695 79.4961 37.4727 80.6445C35.2695 81.7695 33.1016 82.5312 30.9688 82.9297C29.0234 83.3047 26.7266 83.4922 24.0781 83.4922C21.4531 83.4922 18.5469 83.1641 15.3594 82.5078C12.2656 81.875 9.73438 81.1953 7.76562 80.4688L5.09375 79.4844ZM26.7852 56.6328C26.7852 59.9375 25.6953 61.625 23.5156 61.6953L20.4219 61.8359L20.4922 65.3516C22.3203 66.0781 24.1953 66.4414 26.1172 66.4414C30.9219 66.418 33.3242 63.1484 33.3242 56.6328C33.3242 50.1172 30.9219 46.8594 26.1172 46.8594C24.1719 46.8594 22.7188 47.082 21.7578 47.5273C20.7734 47.9492 20.2812 48.1836 20.2812 48.2305L20.3516 51.8164H25.8359C26.4688 53.293 26.7852 54.8984 26.7852 56.6328ZM85.707 22.7422C86.6211 23.4688 87.0781 24.5469 87.0781 25.9766C86.9141 26.9844 86.5156 27.8047 85.8828 28.4375C85.3438 28.9766 84.1367 29.668 82.2617 30.5117C79.707 28.6133 77.668 26.9844 76.1445 25.625L69.957 30.8633C68.5273 30.2539 67.3203 29.4687 66.3359 28.5078C65.5859 27.6406 65.1523 26.7969 65.0352 25.9766V25.4844C65.0352 24.3359 65.5156 23.4219 66.4766 22.7422L73.4023 17.6797C74.5742 16.6719 75.4766 16.168 76.1094 16.168C76.6953 16.168 78.4766 17.2813 81.4531 19.5078L85.707 22.7422ZM101.562 76.0039C101.375 77.2227 100.648 78.6875 99.3828 80.3984C98.0703 82.1328 95.2812 83 91.0156 83C86.75 83 83.7852 80.5508 82.1211 75.6523C80.9492 72.3008 80.2695 70.0508 80.082 68.9023L75.9336 68.5156C74.5977 68.5156 73.3438 68.6445 72.1719 68.9023L71.3984 70.8359C69.8281 74.5625 68.9375 77.2695 68.7266 78.957C68.3281 79.7773 67.4375 80.6562 66.0547 81.5938C64.6953 82.5312 62.75 83 60.2188 83C57.7109 83 55.5312 82.2383 53.6797 80.7148C51.8516 79.168 50.9375 77.3516 50.9375 75.2656C50.9375 73.1562 51.2539 71.3164 51.8867 69.7461C54.2539 63.5117 58.6602 51.5117 65.1055 33.7461C65.832 33.1602 67.1914 32.5859 69.1836 32.0234C71.1523 31.4375 73.8125 31.1445 77.1641 31.1445C80.4922 31.1445 83.1055 31.8477 85.0039 33.2539C86.9023 34.5898 88.6836 37.3555 90.3477 41.5508C91.9414 45.5586 93.3594 49.7305 94.6016 54.0664C95.8438 58.2383 98.1641 65.5508 101.562 76.0039ZM77.2344 47C77.2344 46.4141 77.0586 46.1211 76.707 46.1211H76.6367C76.4492 46.3086 76.2969 46.7773 76.1797 47.5273C76.0625 48.3477 75.3242 52.0156 73.9648 58.5312H79.0273L77.2344 47.2109V47ZM73.1562 6.95703C73.1562 5.57422 73.7539 4.21484 74.9492 2.87891C76.168 1.51953 77.2812 0.839844 78.2891 0.839844C84.6172 4.98828 88.332 7.53125 89.4336 8.46875C91.168 9.78125 92.0352 11.1641 92.0352 12.6172C92.0352 14.0469 91.5078 15.2773 90.4531 16.3086C89.4453 17.293 88.2617 17.7852 86.9023 17.7852C79.4961 13.0039 75.3594 10.1445 74.4922 9.20703C73.6016 8.17578 73.1562 7.42578 73.1562 6.95703ZM137.562 48.6523C137.891 47.0352 138.523 45.1367 139.461 42.957C140.422 40.7305 141.441 38.8672 142.52 37.3672C143.668 35.7969 145.25 34.4023 147.266 33.1836C149.328 31.9414 151.379 31.3203 153.418 31.3203C155.504 31.3203 157.25 31.6484 158.656 32.3047C160.156 32.9609 161.363 33.7109 162.277 34.5547C163.238 35.4453 164.117 36.6641 164.914 38.2109C165.758 39.8047 166.379 41.1289 166.777 42.1836C167.199 43.2148 167.633 44.75 168.078 46.7891C168.477 48.4297 169.168 52.7656 170.152 59.7969C171.066 66.5 171.734 71.1406 172.156 73.7188C172.578 76.2734 172.789 77.5859 172.789 77.6562C172.789 78.5234 172.191 79.5078 170.996 80.6094C169.848 81.6641 168.312 82.3906 166.391 82.7891C164.586 83.1641 163.238 83.3516 162.348 83.3516C159.465 83.3516 157.332 82.6953 155.949 81.3828C154.613 80.1172 153.57 77.2695 152.82 72.8398L150.816 54.6992C148.801 54.6992 147.793 56.5273 147.793 60.1836C147.793 63.7695 148.203 68.6445 149.023 74.8086L149.445 77.9023L149.094 78.4648C148.93 78.7461 148.109 79.5898 146.633 80.9961C145.133 82.4258 142.344 83.1406 138.266 83.1406C135.102 83.1406 132.641 82.1562 130.883 80.1875C129.148 78.1953 128.281 76.0391 128.281 73.7188L127.859 57.6523C127.906 57.2773 127.93 56.9375 127.93 56.6328C127.93 55.1562 127.379 54.418 126.277 54.418L126.066 54.4883H125.891L122.656 79.7656L121.672 80.7148C121.344 81.043 120.406 81.5586 118.859 82.2617C117.43 82.8945 116.047 83.2109 114.711 83.2109C113.352 83.2109 112.449 83.1641 112.004 83.0703C109.098 82.6719 106.93 81.3594 105.5 79.1328C104.07 76.8594 103.355 74.0703 103.355 70.7656C103.426 69.6406 103.508 68.4922 103.602 67.3203C103.742 65.6562 104.48 62.0586 105.816 56.5273C107.176 50.9258 108.477 45.9453 109.719 41.5859L111.582 34.9766C111.91 34.6016 112.238 34.25 112.566 33.9219C113.012 33.4766 113.984 32.9023 115.484 32.1992C117.008 31.4961 118.555 31.1445 120.125 31.1445C121.719 31.1445 123.02 31.2148 124.027 31.3555C124.988 31.4492 126.266 31.8242 127.859 32.4805C129.406 33.0664 130.73 33.9453 131.832 35.1172C134.574 37.9531 136.484 42.4648 137.562 48.6523ZM229.25 66.6523C229.25 71.5977 227.609 75.5 224.328 78.3594C221.07 81.1953 216.617 82.7422 210.969 83H210.406C204.805 82.8828 200.328 81.8516 196.977 79.9062C193.625 77.9375 191.949 75.4648 191.949 72.4883C191.949 70.7539 192.23 69.2539 192.793 67.9883C193.402 66.6758 193.988 65.8438 194.551 65.4922L195.359 64.9297C200.68 67.3203 204.945 68.5156 208.156 68.5156C210.266 68.5156 211.344 67.9648 211.391 66.8633C211.391 66.1836 210.453 65.3633 208.578 64.4023C206.703 63.3945 204.863 62.5859 203.059 61.9766L200.246 60.957C198.066 60.1367 196.262 59.0117 194.832 57.582C193.402 56.1289 192.348 54.3711 191.668 52.3086C190.988 50.1758 190.66 48.1484 190.684 46.2266C190.73 44.2109 191.164 42.2891 191.984 40.4609C192.852 38.5625 194.398 36.793 196.625 35.1523C198.875 33.4648 201.453 32.375 204.359 31.8828C207.289 31.3906 209.551 31.1445 211.145 31.1445C214.848 31.1445 218.527 31.9062 222.184 33.4297C224.105 34.2266 225.664 35.4219 226.859 37.0156C228.078 38.5859 228.688 40.2734 228.688 42.0781C228.688 43.8594 228.266 45.5469 227.422 47.1406C226.602 48.7578 225.699 49.7188 224.715 50.0234C219.301 47.7734 215.176 46.6484 212.34 46.6484C210.277 46.6484 209.129 47.0586 208.895 47.8789L208.754 48.3008C208.754 48.9336 209.434 49.5312 210.793 50.0938C212.176 50.6328 213.559 51.0195 214.941 51.2539L217.016 51.6055C219.312 52.2617 221.352 53.2578 223.133 54.5938C224.867 55.9062 226.32 57.6758 227.492 59.9023C228.664 62.1289 229.25 64.3789 229.25 66.6523ZM233.891 40.2148C233.891 38.3633 234.523 36.6992 235.789 35.2227C238.203 32.3633 242.316 30.9336 248.129 30.9336L264.477 30.7227C264.898 30.7227 265.953 31.0977 267.641 31.8477C269.281 32.5742 270.102 34.7422 270.102 38.3516C270.102 43.7656 267.312 46.4844 261.734 46.5078L254.316 46.4375L254.387 51.043L263.703 50.5859C264.547 50.5859 265.402 51.0195 266.27 51.8867C267.137 52.7539 267.57 54.2891 267.57 56.4922C267.57 58.6953 266.926 60.3242 265.637 61.3789C264.324 62.4102 262.883 62.9258 261.312 62.9258C261.102 62.9258 258.84 62.7969 254.527 62.5391V67.8125L267.852 66.793L268.449 67.6367C268.754 68.0117 269.094 68.9492 269.469 70.4492C269.891 71.9492 270.102 73.5664 270.102 75.3008C270.102 78.5117 269.164 80.6328 267.289 81.6641C265.438 82.6484 263.703 83.1406 262.086 83.1406L252.805 83.4922C250.695 83.4922 248.797 83.4336 247.109 83.3164C245.703 83.2227 244.074 82.918 242.223 82.4023C240.418 81.8633 238.648 80.832 236.914 79.3086C235.156 77.7148 234.195 74.5977 234.031 69.957C233.938 69.8633 233.891 59.9492 233.891 40.2148ZM309.793 31.3203C313.73 31.3203 316.613 32.5156 318.441 34.9062C320.27 37.2969 321.184 40.5547 321.184 44.6797L320.902 63.4883C320.832 68.8555 320.762 72.8398 320.691 75.4414L320.586 78.1836C320.586 78.5586 319.93 79.5078 318.617 81.0312C317.328 82.5312 314.656 83.2812 310.602 83.2812C306.523 83.2812 302.973 81.207 299.949 77.0586C296.926 72.9102 294.957 68.1758 294.043 62.8555H293.516L294.816 80.2578C293.996 81.0781 292.719 81.7812 290.984 82.3672C289.203 82.9766 287.41 83.2812 285.605 83.2812C282.277 83.2812 279.5 82.1914 277.273 80.0117C275.094 77.832 274.004 74.6797 274.004 70.5547V33.6055C276.441 31.9648 279.723 31.1445 283.848 31.1445C287.949 31.1445 290.984 32.4336 292.953 35.0117C294.945 37.5898 296.34 40.7891 297.137 44.6094C297.957 48.4766 298.871 51.6992 299.879 54.2773H300.723C300.395 42.3477 300.23 36.0547 300.23 35.3984C300.23 34.2734 300.348 33.5586 300.582 33.2539C300.863 32.9023 301.707 32.5039 303.113 32.0586C304.59 31.5664 306.816 31.3203 309.793 31.3203Z" fill="white"/>
</svg>
